<?xml version="1.0" encoding="utf-8"?>
<!-- Generator: Adobe Illustrator 18.0.0, SVG Export Plug-In . SVG Version: 6.00 Build 0)  -->
<!DOCTYPE svg PUBLIC "-//W3C//DTD SVG 1.1//EN" "http://www.w3.org/Graphics/SVG/1.1/DTD/svg11.dtd">
<svg version="1.1"
	 id="Layer_1" xmlns:rdf="http://www.w3.org/1999/02/22-rdf-syntax-ns#" xmlns:cc="http://creativecommons.org/ns#" xmlns:svg="http://www.w3.org/2000/svg" xmlns:dc="http://purl.org/dc/elements/1.1/"
	 xmlns="http://www.w3.org/2000/svg" xmlns:xlink="http://www.w3.org/1999/xlink" x="0px" y="0px" viewBox="0 194.9 595.3 450"
	 enable-background="new 0 194.9 595.3 450" xml:space="preserve">
<g id="g3">
	<polygon id="polygon5" fill="#FFFFFF" points="40.8,395.7 48.7,400.9 54.3,396.3 46.3,391.4 	"/>
	<polygon id="polygon7" fill="#FFFFFF" points="48.7,381.8 40.8,387 46.3,391.4 54.3,386.4 	"/>
	<polygon id="polygon9" fill="#FFFFFF" points="67.7,387 59.8,381.8 54.3,386.4 62.3,391.4 	"/>
	<polygon id="polygon11" fill="#FFFFFF" points="54.3,396.3 59.8,400.9 67.7,395.7 62.3,391.4 	"/>
	<polygon id="polygon13" fill="#FFFFFF" points="54.3,397.2 48.7,401.8 46.4,400.3 46.4,402 54.3,406.8 62.2,402 62.2,400.3 
		59.8,401.8 	"/>
</g>
<path id="path15" fill="#FFFFFF" d="M277.4,238.8h-5c-3.6,0-4.2-1.6-4.2-3.1c0-0.7,0.1-1.8,0.1-3.2h8.4c1.2,0,3.7-0.5,3.7-2.8
	c0-2.3-1.1-3.8-2.6-3.8h-9.4c0-3.3-0.2-6.7-3.5-6.7c-1.4,0-2.4,0.5-2.9,1.9c-0.6,1.8-0.4,3.9-0.4,5.8c0,0.4,0,0.7,0,1.1
	c0,1.2,0.1,2.5,0.1,3.7c0,1.4,0,2.7,0,4c0,7.4,6.8,9.5,8.1,9.5s6.4,0.1,7.3,0.1c0.9,0,3.6-0.2,3.6-2.9
	C280.5,239.8,278.7,238.8,277.4,238.8z"/>
<path id="path17" fill="#FFFFFF" d="M329.7,227.7h-4.1V225c0-1,0.6-1.2,1.1-1.2c0.5,0,2.9,0,2.9,0v-4.5h-4c-4.4,0-5.5,3.4-5.5,5.5v3
	h-2.7v4.6h2.6c0,5.9,0,13,0,13h5.4c0,0,0-7.2,0-13h3.7L329.7,227.7z"/>
<path id="path19" fill="#FFFFFF" d="M121.1,229.7c-0.2-0.9-0.4-1.7-0.8-2.5c-0.3-0.8-0.8-1.6-1.2-2.3c-0.5-0.7-1-1.4-1.6-2
	c-0.6-0.6-1.2-1.1-2-1.6c-0.7-0.5-1.5-0.9-2.3-1.2c-0.8-0.3-1.7-0.6-2.5-0.8c-0.9-0.2-1.8-0.3-2.7-0.3c-0.9,0-1.8,0.1-2.7,0.3
	c-0.9,0.2-1.7,0.4-2.5,0.8c-0.8,0.3-1.6,0.8-2.3,1.2c-0.7,0.5-1.4,1-2,1.6c-0.6,0.6-1.1,1.2-1.6,2c-0.5,0.7-0.9,1.5-1.2,2.3
	c-0.3,0.8-0.6,1.7-0.8,2.5c-0.2,0.9-0.3,1.8-0.3,2.7s0.1,1.8,0.3,2.7c0.2,0.9,0.4,1.7,0.8,2.5c0.3,0.8,0.8,1.6,1.2,2.3
	c0.5,0.7,1,1.4,1.6,2c0.6,0.6,1.2,1.1,2,1.6c0.7,0.5,1.5,0.9,2.3,1.2c0.8,0.3,1.7,0.6,2.5,0.8c0.9,0.2,1.8,0.3,2.7,0.3
	c0.9,0,1.8-0.1,2.7-0.3c0.9-0.2,1.7-0.4,2.5-0.8c0.8-0.3,1.6-0.8,2.3-1.2c0.7-0.5,1.4-1,2-1.6c0.6-0.6,1.1-1.2,1.6-2
	c0.5-0.7,0.9-1.5,1.2-2.3s0.6-1.7,0.8-2.5c0.2-0.9,0.3-1.8,0.3-2.7S121.3,230.6,121.1,229.7z M119.5,232.3c-0.2-0.1-4.1-0.9-8-0.4
	c-0.1-0.2-0.2-0.4-0.3-0.6c-0.2-0.5-0.5-1.1-0.8-1.7c4.5-1.8,6.3-4.5,6.4-4.5C118.5,227.1,119.5,229.6,119.5,232.3z M115.6,223.9
	c-0.1,0.1-1.7,2.5-6,4.1c-1.9-3.6-4.1-6.4-4.3-6.7c0.9-0.2,1.8-0.3,2.7-0.3C111,221,113.6,222.1,115.6,223.9z M105.3,221.4
	C105.3,221.4,105.3,221.4,105.3,221.4C105.3,221.4,105.3,221.4,105.3,221.4C105.3,221.4,105.3,221.4,105.3,221.4z M103.2,222.1
	c0.2,0.2,2.3,3.1,4.2,6.6c-5.5,1.5-10.2,1.4-10.5,1.4C97.6,226.6,100,223.6,103.2,222.1z M96.6,232.5c0-0.1,0-0.2,0-0.4
	c0.2,0,5.8,0.1,11.7-1.6c0.3,0.6,0.6,1.3,0.9,1.9c-0.2,0.1-0.3,0.1-0.4,0.2c-6.2,1.9-9.3,7.5-9.3,7.5l0,0
	C97.7,238,96.6,235.4,96.6,232.5z M108,243.9c-2.8,0-5.3-1-7.2-2.6c0.2,0.1,0.3,0.2,0.3,0.2s2.2-4.8,9-7.1h0.1
	c1.6,4.2,2.3,7.7,2.4,8.7C111.1,243.5,109.6,243.9,108,243.9z M114.4,241.9c-0.1-0.7-0.7-4.1-2.2-8.2c3.7-0.6,6.9,0.4,7.1,0.5
	C118.8,237.4,117,240.2,114.4,241.9z"/>
<g id="g21">
	<circle id="circle23" fill="#FFFFFF" cx="209.5" cy="232.9" r="5.8"/>
	<circle id="circle25" fill="#FFFFFF" cx="224.1" cy="232.9" r="5.8"/>
</g>
<path id="path27" fill="#FFFFFF" d="M66.2,245L55,219.2c-0.1-0.2-0.3-0.4-0.6-0.4l0,0c-0.3,0-0.5,0.2-0.6,0.4L42.6,245
	c-0.1,0.2-0.1,0.4,0.1,0.6c0.1,0.2,0.3,0.3,0.5,0.3h10v-5.5l-2.7-1.8l0.4-0.6l2.2,1.6v-4.4h2.5v2.9l2.3-1.2l0.3,0.7l-2.7,1.4v2.1
	l4.3-2.2l0.3,0.7l-4.6,2.3v4.1h9.9c0.2,0,0.4-0.1,0.5-0.3C66.2,245.4,66.3,245.2,66.2,245z"/>
<path id="path29" fill="#FFFFFF" d="M391.2,235.1c0.2-0.9,0.3-1.8,0.3-2.7c0-7-5.7-12.7-12.7-12.7c-0.8,0-1.5,0.1-2.2,0.2
	c-1.1-0.7-2.5-1.1-3.9-1.1c-4.1,0-7.4,3.3-7.4,7.4c0,1.4,0.4,2.7,1,3.7c-0.2,0.8-0.3,1.7-0.3,2.5c0,7,5.7,12.7,12.7,12.7
	c0.8,0,1.6-0.1,2.3-0.2c1,0.5,2.2,0.9,3.5,0.9c4.1,0,7.4-3.3,7.4-7.4C391.9,237.1,391.6,236,391.2,235.1z M385.3,238.4
	c-0.6,0.8-1.5,1.5-2.6,1.9c-1.1,0.5-2.4,0.7-3.9,0.7c-1.8,0-3.4-0.3-4.5-1c-0.9-0.4-1.6-1.1-2.1-1.8c-0.5-0.8-0.8-1.6-0.8-2.3
	c0-0.5,0.2-0.9,0.5-1.2c0.3-0.3,0.8-0.5,1.3-0.5c0.4,0,0.8,0.1,1.1,0.4c0.3,0.3,0.5,0.6,0.8,1.1c0.2,0.5,0.5,1,0.7,1.3
	c0.3,0.3,0.6,0.6,1.1,0.8c0.4,0.2,1.1,0.3,1.8,0.3c1,0,1.9-0.2,2.5-0.6s0.9-1,0.9-1.6c0-0.5-0.2-0.9-0.5-1.2
	c-0.3-0.3-0.8-0.6-1.4-0.8c-0.6-0.2-1.4-0.4-2.3-0.6c-1.3-0.3-2.4-0.6-3.3-1c-0.9-0.4-1.6-0.9-2.2-1.6c-0.5-0.7-0.8-1.5-0.8-2.5
	c0-1,0.3-1.8,0.9-2.5c0.5-0.8,1.4-1.3,2.4-1.7c1-0.4,2.3-0.6,3.7-0.6c1.1,0,2.1,0.1,3,0.4c0.8,0.3,1.5,0.6,2.1,1
	c0.5,0.4,1,0.9,1.2,1.4c0.3,0.5,0.4,1,0.4,1.5c0,0.4-0.2,0.9-0.5,1.2c-0.3,0.4-0.8,0.5-1.3,0.5c-0.5,0-0.8-0.1-1.1-0.3
	c-0.2-0.2-0.5-0.5-0.8-1c-0.3-0.6-0.7-1.1-1.1-1.4c-0.4-0.3-1.1-0.5-2.1-0.5c-0.9,0-1.6,0.2-2.2,0.5c-0.5,0.3-0.8,0.8-0.8,1.2
	c0,0.3,0.1,0.5,0.3,0.8c0.2,0.2,0.4,0.4,0.8,0.6s0.7,0.3,1,0.4c0.4,0.1,0.9,0.2,1.7,0.4c1,0.2,1.9,0.5,2.8,0.8
	c0.9,0.3,1.6,0.6,2.2,1c0.6,0.4,1.1,0.9,1.4,1.5c0.3,0.6,0.5,1.4,0.5,2.2C386.2,236.6,385.9,237.5,385.3,238.4z"/>
<g id="g31">
	<path id="path33" fill="#FFFFFF" d="M55.3,284.8L55.3,284.8L55.3,284.8L55.3,284.8z"/>
	<path id="path35" fill="#FFFFFF" d="M65.7,272.7H43c-1.1,0-2,0.9-2,1.9v23c0,1.1,0.9,1.9,2,1.9h22.8c1.1,0,2-0.9,2-1.9v-23
		C67.7,273.6,66.8,272.7,65.7,272.7z M49.1,295.2H45V283h4.1V295.2z M47.1,281.4L47.1,281.4c-1.4,0-2.3-0.9-2.3-2.1
		c0-1.2,0.9-2.1,2.3-2.1c1.4,0,2.2,0.9,2.3,2.1C49.3,280.5,48.5,281.4,47.1,281.4z M63.6,295.2h-4.1v-6.5c0-1.6-0.6-2.8-2.1-2.8
		c-1.1,0-1.8,0.8-2.1,1.5c-0.1,0.3-0.1,0.6-0.1,1v6.8h-4.1c0,0,0.1-11,0-12.2h4.1v1.7c0.5-0.8,1.5-2,3.6-2c2.7,0,4.7,1.7,4.7,5.5
		C63.6,288.2,63.6,295.2,63.6,295.2z"/>
</g>
<path id="path37" fill="#FFFFFF" d="M149.4,280.8l1.1,1.4c0,0,2.2-1.8,3-0.9c0.8,0.9,3.6,11.6,4.5,13.5c0.8,1.7,3.1,4,5.6,2.4
	s10.9-8.8,12.4-17.2c1.5-8.4-10.1-6.7-11.3,0.7c3.1-1.8,4.7,0.8,3.1,3.7c-1.6,2.9-3,4.8-3.7,4.8s-1.3-1.9-2.2-5.4
	c-0.9-3.5-0.9-9.9-4.5-9.2C154,275.4,149.4,280.8,149.4,280.8z"/>
<path id="path39" fill="#FFFFFF" d="M117.6,284.5c-0.2-0.1-0.4-0.2-0.6-0.2c-1.7-0.5-2.7-0.8-2.7-2.1c0-1,0.8-1.8,1.9-1.8
	c0.9,0,1.5,0.4,2.1,1.1c0.1,0.1,0.2,0.1,0.2,0.1l1.7-0.9c0.1,0,0.1-0.1,0.1-0.1c0-0.1,0-0.1,0-0.2c-0.9-1.6-2.2-2.4-3.9-2.4
	c-2.7,0-4.4,1.6-4.4,4.1c0,2.5,1.7,3.6,4.8,4.6c1.8,0.6,2.6,0.9,2.6,2.2c0,1.4-1.3,2.4-3,2.4c-1.8-0.1-2.4-1-3.1-2.7
	c-1.2-2.7-2.5-5.9-2.5-5.9c-1.4-3.1-4.1-4.9-7.4-4.9c-4.4,0-8,3.6-8,8c0,4.4,3.6,8,8,8c2.4,0,4.7-1.1,6.2-2.9c0.1-0.1,0.1-0.1,0-0.2
	l-1-2.3c-0.1-0.1-0.1-0.1-0.2-0.1c-0.1,0-0.2,0.1-0.2,0.1c-1,1.8-2.8,2.9-4.9,2.9c-3,0-5.5-2.4-5.5-5.5s2.4-5.5,5.5-5.5
	c2.2,0,4.2,1.3,5,3.2l2.5,5.7l0.3,0.6c1.1,2.6,2.8,3.8,5.4,3.8c3.1,0,5.4-2.1,5.4-4.8C121.7,286.3,120.2,285.3,117.6,284.5z"/>
<g id="g41">
	<path id="path43" fill="#FFFFFF" d="M224.7,282.1c0.2-0.1,0.4-0.1,0.6-0.1h1.9l0.3-0.4l0,0l0.8-1.1h-0.1l0.1-0.1h-10.5l0.4,1.7h2.9
		l-4.8,4.3c-1-1.4-3.3-4.2-4.9-6.5h3.6v-1.2l0.1-0.3H215v-0.1h-12v1.7h3.6c1.4,1.1,6.7,7.6,6.9,8.3c0.1,0.6,0.2,4.2-0.1,4.5
		c-0.5,0.5-2.9,0.4-3.5,0.4l-0.2,1.1c1,0.1,4.4-0.1,5.5-0.1c2.1,0,5.7,0,6.2,0.1l0.1-1.2c-0.5-0.1-3.4,0-3.8-0.1
		c-0.1-0.6-0.2-4.4-0.1-4.8C218,286.9,224,282.3,224.7,282.1z"/>
	<path id="path45" fill="#FFFFFF" d="M226.4,291.2l1.6,0.1l1.9-7.2c-0.3,0-3.1-0.3-3.5-0.3V291.2z"/>
	<polygon id="polygon47" fill="#FFFFFF" points="226.1,292.3 226.2,294.1 227,294.1 227.9,294.2 228.1,292.5 227.2,292.5 	"/>
</g>
<path id="path49" fill="#FFFFFF" d="M272.1,273v6.2h6.2v4.8h-6.2v6.8c0,1.6,0,2.4,0.2,2.9s0.6,0.9,1,1.1c0.6,0.4,1.2,0.5,2,0.5
	c1.4,0,2.7-0.4,4-1.3v4.2c-1.1,0.5-2.2,0.9-3.1,1.1s-1.9,0.3-3,0.3c-1.2,0-1.9-0.2-2.9-0.4c-0.9-0.3-1.7-0.8-2.4-1.3
	c-0.6-0.6-1.1-1.2-1.4-1.8c-0.3-0.6-0.4-1.6-0.4-2.8v-9.4h-3.6v-3.8c1-0.3,2.3-0.8,3-1.5c0.8-0.6,1.4-1.4,1.8-2.3s0.8-2,0.9-3.4
	L272.1,273L272.1,273z"/>
<g id="g51">
	<path id="path53" fill="#FFFFFF" d="M331.2,287.2c-0.1-3.4,2.8-5,2.9-5.1c-1.6-2.3-4-2.6-4.9-2.7c-2.1-0.2-4.1,1.2-5.1,1.2
		c-1,0-2.7-1.2-4.4-1.1c-2.3,0.1-4.3,1.3-5.5,3.4c-2.3,4.1-0.6,10.1,1.7,13.4c1.1,1.6,2.4,3.4,4.2,3.4c1.7-0.1,2.3-1.1,4.4-1.1
		c2.1,0,2.6,1.1,4.4,1.1c1.8-0.1,3-1.6,4.1-3.2c1.3-1.9,1.8-3.7,1.8-3.8C334.7,292.5,331.2,291.2,331.2,287.2z"/>
	<path id="path55" fill="#FFFFFF" d="M327.9,277.3c0.9-1.1,1.6-2.7,1.4-4.3c-1.4,0.1-3,0.9-3.9,2c-0.9,1-1.6,2.6-1.4,4.1
		C325.4,279.3,326.9,278.4,327.9,277.3z"/>
</g>
<g id="g57">
	<g id="g59">
		<g id="g61">
			<g id="use66">
				<path id="SVGID_1_" fill="#FFFFFF" d="M375.2,295.3c-1.4-0.9-2.8-1.7-4.8-1.7c-1.2,0-2.7,0.3-4.5,1l2.4-8.4
					c0.3-0.1,0.5-0.2,0.8-0.3c0.9-0.3,2.2-0.6,3.5-0.8c0.2,0,0.3,0,0.5,0c1.4,0,2.7,0.5,3.6,0.9c0.4,0.2,0.8,0.4,1.1,0.6
					C377.5,287.8,375.7,293.6,375.2,295.3"/>
			</g>
		</g>
	</g>
	<g id="g71">
		<g id="g73">
			<g id="use78">
				<path id="SVGID_3_" fill="#FFFFFF" d="M381.7,297.9c-2.1,0-5-1.7-5-1.7l2.4-8.4c0.8,0.6,2.4,1.7,5.2,1.7c1.3,0,2.8-0.2,4.6-0.9
					l-2.3,8.2C384.7,297.6,383.1,297.9,381.7,297.9"/>
			</g>
		</g>
	</g>
	<g id="g83">
		<g id="g85">
			<g id="use90">
				<path id="SVGID_5_" fill="#FFFFFF" d="M380.7,276.3L380.7,276.3c-0.5,1.7-2,6.8-2.5,8.4 M378.2,284.7c-1.3-0.9-2.7-1.6-4.7-1.7
					h-0.1c-1.2,0-2.8,0.3-4.7,1.1l2.4-8.4c1.8-0.8,3.3-1,4.5-1.1c0,0,0,0,0.1,0c0.7,0,1.4,0.1,1.9,0.2c1.2,0.3,3,1.4,3,1.4"/>
			</g>
		</g>
	</g>
	<g id="g95">
		<g id="g97">
			<g id="use102">
				<path id="SVGID_7_" fill="#FFFFFF" d="M385,287.5c-2.1,0-3.9-0.7-5.2-1.6l0,0l2.4-8.5c0.8,0.6,2.5,1.7,5.2,1.7
					c1.4,0,2.9-0.3,4.7-1.1l-2.4,8.3l0,0l0,0C388,287.2,386.4,287.5,385,287.5"/>
			</g>
		</g>
	</g>
</g>
<g id="g107">
	<path id="path109" fill="#FFFFFF" d="M423.6,225.4v3.5h-4v8.1h6.7v-11.6H423.6z M423.6,234.8h-1.4v-3.7h1.4V234.8z"/>
	<path id="path111" fill="#FFFFFF" d="M431.6,228.9v8.1h4v1.2h-4.1v2.3h5.5h1.1v-11.6H431.6z M435.6,234.8h-1.4v-3.7h1.4V234.8z"/>
	<path id="path113" fill="#FFFFFF" d="M439.6,228.9v8.1h4v1.2h-4.1v2.3h5.5h1.1v-11.6H439.6z M443.7,234.8h-1.4v-3.7h1.4V234.8z"/>
	<rect id="rect115" x="427.5" y="228.9" fill="#FFFFFF" width="2.7" height="8.2"/>
	<rect id="rect117" x="427.5" y="225.5" fill="#FFFFFF" width="2.7" height="2.2"/>
</g>
<g id="g119">
	<path id="path121" fill="#FFFFFF" d="M430.9,339.1l2.3-3.9c0.2-0.3,0.1-0.6-0.2-0.9l-1.6-0.9c-0.3-0.2-0.6-0.1-0.9,0.2l-2.4,4.3
		l0,0l-2.7,4.7l0,0l-2.3,3.9c-0.2,0.3-0.1,0.6,0.2,0.9l1.6,0.9c0.3,0.2,0.6,0.1,0.9-0.2l3.1-5.5l0,0L430.9,339.1z"/>
	<path id="path123" fill="#FFFFFF" d="M446,337.9h-5.4c0.6,1.2,1.2,2.3,1.6,3.1c0.3,0.5,0.5,1,0.6,1.1c0.1,0.2,0.2,0.3,0.2,0.5h3
		c0.3,0,0.5-0.3,0.5-0.5v-3.6C446.6,338.2,446.3,337.9,446,337.9z"/>
	<path id="path125" fill="#FFFFFF" d="M432.9,337.9l-2.7,4.7h7.4c-0.5-1-1.2-2.5-2.2-4.7C435.4,337.9,432.9,337.9,432.9,337.9z"/>
	<path id="path127" fill="#FFFFFF" d="M426.8,337.9h-6.2c-0.3,0-0.5,0.3-0.5,0.5v3.6c0,0.3,0.3,0.5,0.5,0.5h3.5L426.8,337.9z"/>
	<path id="path129" fill="#FFFFFF" d="M424.4,349l-1.6-0.9c-0.3-0.2-0.5-0.1-0.6,0.3l-0.3,2.4c-0.1,0.3,0.2,0.4,0.4,0.3l2.1-1.4
		C424.6,349.5,424.6,349.2,424.4,349z"/>
	<path id="path131" fill="#FFFFFF" d="M441.8,342.7C441.8,342.7,441.8,342.7,441.8,342.7L441.8,342.7c-0.2-0.3-0.6-1-1.1-2
		c0,0,0,0,0-0.1c-0.1-0.1-0.1-0.2-0.1-0.2c-0.1-0.1-0.1-0.1-0.1-0.2c0-0.1-0.1-0.1-0.1-0.2c-0.1-0.1-0.1-0.2-0.1-0.3l-0.1-0.1
		c-0.1-0.1-0.1-0.2-0.2-0.3c0-0.1-0.1-0.1-0.1-0.1c-1.1-2.1-2.5-4.8-3.4-6.2c-1.5-2.4-3.6-6.4-4.2-6.2c-0.8,0.4,1.7,5.5,2.5,7.5
		s4,9.3,4.7,9.6c0.6,0.3,0.9,0.2,1.3-0.1C441.5,344,442.3,343.4,441.8,342.7z"/>
	<path id="path133" fill="#FFFFFF" d="M443.7,346.5l-0.8-1.5c-0.2-0.3-0.6-0.5-0.9-0.3l-0.9,0.5c-0.3,0.2-0.4,0.5-0.2,0.9l1,1.5
		c0.2,0.3,0.6,0.4,0.9,0.2l0.6-0.4C443.7,347.3,443.8,346.8,443.7,346.5z"/>
	<path id="path135" fill="#FFFFFF" d="M443.5,348.6c-0.2,0.2-0.8,0.8-0.1,1.7c0.7,1,2.2,1,2.4,1.7C445.8,352,446.3,347,443.5,348.6z
		"/>
</g>
<g id="g137">
	<path id="path139" fill="#FFFFFF" d="M441.5,285.5h-16.8c-2.7,0-4.9,2.2-4.9,4.9v3.9c0,2.7,2.2,4.9,4.9,4.9h16.8
		c2.7,0,4.9-2.2,4.9-4.9v-3.9C446.3,287.7,444.1,285.5,441.5,285.5z M428.2,288.6h-1.6v7.8h-1.5v-7.8h-1.6v-1.3h4.7L428.2,288.6
		L428.2,288.6z M432.5,296.3h-1.4v-0.8c-0.3,0.3-0.5,0.5-0.8,0.6c-0.3,0.2-0.5,0.2-0.8,0.2c-0.3,0-0.5-0.1-0.7-0.3s-0.2-0.5-0.2-0.9
		v-5.6h1.4v5.1c0,0.2,0.1,0.3,0.1,0.3s0.2,0.1,0.3,0.1s0.2-0.1,0.4-0.2s0.3-0.2,0.4-0.4v-5.1h1.4v6.9H432.5z M437.4,294.9
		c0,0.5-0.1,0.9-0.3,1.1c-0.2,0.3-0.5,0.4-0.9,0.4c-0.3,0-0.5-0.1-0.7-0.2c-0.2-0.1-0.4-0.3-0.6-0.4v0.5h-1.4v-9.1h1.4v2.9
		c0.2-0.2,0.4-0.4,0.6-0.5c0.2-0.1,0.4-0.2,0.6-0.2c0.4,0,0.8,0.2,1,0.4s0.3,0.7,0.3,1.2L437.4,294.9L437.4,294.9z M442.1,293.2
		h-2.5v1.2c0,0.4,0.1,0.6,0.1,0.8c0.1,0.2,0.2,0.2,0.4,0.2s0.4-0.1,0.5-0.2c0.1-0.1,0.1-0.4,0.1-0.8v-0.3h1.4v0.3
		c0,0.7-0.2,1.2-0.5,1.6c-0.3,0.3-0.8,0.5-1.5,0.5c-0.6,0-1.1-0.2-1.4-0.5c-0.3-0.4-0.5-0.9-0.5-1.5v-3c0-0.6,0.2-1.1,0.6-1.4
		c0.4-0.4,0.9-0.5,1.5-0.5c0.6,0,1.1,0.2,1.4,0.5c0.3,0.3,0.5,0.8,0.5,1.5V293.2z"/>
	<path id="path141" fill="#FFFFFF" d="M440.1,290.6c-0.2,0-0.4,0.1-0.4,0.2c-0.1,0.1-0.2,0.3-0.2,0.6v0.7h1.2v-0.7
		c0-0.3-0.1-0.5-0.2-0.6C440.5,290.7,440.3,290.6,440.1,290.6z"/>
	<path id="path143" fill="#FFFFFF" d="M435.5,290.6c-0.1,0-0.2,0-0.3,0.1c-0.1,0.1-0.2,0.1-0.3,0.2v4.2c0.1,0.1,0.2,0.2,0.3,0.2
		c0.1,0.1,0.2,0.1,0.3,0.1c0.2,0,0.3-0.1,0.4-0.2c0.1-0.1,0.1-0.3,0.1-0.5v-3.5c0-0.2-0.1-0.4-0.2-0.5
		C435.8,290.7,435.7,290.6,435.5,290.6z"/>
	<polygon id="polygon145" fill="#FFFFFF" points="426.8,283.2 428.5,283.2 428.5,279 430.5,273.2 428.8,273.2 427.7,277.2 
		427.6,277.2 426.5,273.2 424.8,273.2 426.8,279.2 	"/>
	<path id="path147" fill="#FFFFFF" d="M432.8,283.4c0.7,0,1.2-0.2,1.6-0.5c0.4-0.4,0.6-0.9,0.6-1.5v-3.8c0-0.5-0.2-1-0.6-1.4
		c-0.4-0.4-0.9-0.5-1.5-0.5c-0.7,0-1.2,0.2-1.6,0.5c-0.4,0.3-0.6,0.8-0.6,1.4v3.8c0,0.6,0.2,1.1,0.6,1.5
		C431.6,283.2,432.2,283.4,432.8,283.4z M432.2,277.4c0-0.2,0.1-0.3,0.2-0.4c0.1-0.1,0.3-0.2,0.4-0.2c0.2,0,0.4,0.1,0.5,0.2
		c0.1,0.1,0.2,0.2,0.2,0.4v4.1c0,0.2-0.1,0.4-0.2,0.5c-0.1,0.1-0.3,0.2-0.5,0.2s-0.4-0.1-0.5-0.2c-0.1-0.1-0.2-0.3-0.2-0.5
		L432.2,277.4L432.2,277.4z"/>
	<path id="path149" fill="#FFFFFF" d="M437.3,283.3c0.3,0,0.6-0.1,0.9-0.2c0.3-0.2,0.6-0.4,0.9-0.7v0.8h1.5v-7.4H439v5.6
		c-0.2,0.2-0.3,0.3-0.5,0.4c-0.2,0.1-0.3,0.2-0.4,0.2c-0.2,0-0.3-0.1-0.3-0.1c-0.1-0.1-0.1-0.2-0.1-0.4v-5.7h-1.5v6.2
		c0,0.4,0.1,0.8,0.3,1C436.7,283.2,436.9,283.3,437.3,283.3z"/>
</g>
<path id="path151" fill="#FFFFFF" d="M283.7,337.8l-0.2-0.4l-0.4-0.3c-0.5-0.4-2.9,0-3.6-0.6c-0.5-0.4-0.5-1.2-0.7-2.2
	c-0.3-2-0.4-2.1-0.8-2.8c-1.1-2.4-4.2-4.3-6.4-4.5h-5.8c-4.5,0-8.3,3.7-8.3,8.3v9.6c0,4.5,3.7,8.2,8.3,8.2h9.5
	c4.5,0,8.2-3.7,8.3-8.2l0.1-6.7L283.7,337.8z M266.1,333.7h4.6c0.9,0,1.6,0.7,1.6,1.6s-0.7,1.6-1.6,1.6h-4.6c-0.9,0-1.6-0.7-1.6-1.6
	C264.5,334.4,265.2,333.7,266.1,333.7z M275.4,346.3h-9.3c-0.9,0-1.6-0.7-1.6-1.6s0.7-1.6,1.6-1.6h9.3c0.9,0,1.6,0.7,1.6,1.6
	S276.3,346.3,275.4,346.3z"/>
<path id="path153" fill="#FFFFFF" d="M310.7,340.2c0,5.2,3.1,9.8,7.5,12l-6.3-17.4C311.1,336.4,310.7,338.3,310.7,340.2z M333,339.5
	c0-1.6-0.6-2.8-1.1-3.7c-0.6-1.1-1.3-2-1.3-3.1c0-1.2,0.9-2.4,2.2-2.4c0.1,0,0.1,0,0.2,0c-2.4-2.2-5.5-3.5-9-3.5
	c-4.7,0-8.8,2.4-11.1,6c0.3,0,0.6,0,0.9,0c1.4,0,3.6-0.2,3.6-0.2c0.7-0.1,0.8,1,0.1,1.1c0,0-0.7,0.1-1.5,0.1l4.9,14.4l2.9-8.8
	l-2.1-5.7c-0.7-0.1-1.4-0.1-1.4-0.1c-0.7-0.1-0.6-1.1,0.1-1.1c0,0,2.2,0.2,3.5,0.2c1.4,0,3.6-0.2,3.6-0.2c0.7-0.1,0.8,1,0.1,1.1
	c0,0-0.7,0.1-1.5,0.1l4.8,14.3l1.4-4.4C332.7,342.1,333,340.7,333,339.5z M324.3,341.4l-4,11.6c1.2,0.3,2.4,0.5,3.8,0.5
	c1.6,0,3-0.3,4.4-0.8c-0.1-0.1-0.1-0.1-0.1-0.2L324.3,341.4z M335.7,333.8c0.1,0.4,0.1,0.9,0.1,1.4c0,1.4-0.3,2.9-1,4.8l-4.1,11.7
	c3.9-2.3,6.6-6.6,6.6-11.5C337.3,337.9,336.7,335.7,335.7,333.8z"/>
<g id="g155">
	<g id="g157">
		<path id="path159" fill="#FFFFFF" d="M60.1,328.1c-1.7-0.8-3.6-1.2-5.5-1.2c-1.6,0-3.1,0.3-4.7,0.9c0.4,0.3,9.7,8.8,10.2,9.2
			C60.1,336.4,60.1,328.3,60.1,328.1L60.1,328.1z"/>
	</g>
	<g id="g161">
		<path id="path163" fill="#FFFFFF" d="M47.8,351.6c0-0.5,0-10.8,0-11.5c-0.4,0.4-5.4,4.9-5.5,5C43.3,347.9,45.3,350.1,47.8,351.6
			L47.8,351.6z"/>
	</g>
	<g id="g165">
		<path id="path167" fill="#FFFFFF" d="M41.3,340.2c0,1.1,0.2,2.3,0.5,3.5c0.4-0.3,11.6-10.5,11.8-10.7c-0.2-0.2-4.9-4.4-5-4.6
			C44.1,330.7,41.3,335.2,41.3,340.2L41.3,340.2z"/>
	</g>
	<g id="g169">
		<path id="path171" fill="#FFFFFF" d="M49.2,346c0,0.3,0,6.2,0,6.4c1.4,0.6,2.8,1,4.2,1.1h2.4c4.6-0.4,8.7-3.2,10.8-7.5
			C66.1,346,49.4,346,49.2,346L49.2,346z"/>
	</g>
	<g id="g173">
		<path id="path175" fill="#FFFFFF" d="M61.5,328.9c0,0.5,0,15.5,0,15.7c0.3,0,5.5,0,5.7,0c0.5-1.4,0.8-2.9,0.8-4.4
			C68,335.6,65.5,331.3,61.5,328.9L61.5,328.9z"/>
	</g>
</g>
<g id="g177">
	<path id="path179" fill="#FFFFFF" d="M388,348.2c-0.1,0-0.3,0.1-0.4,0.1c-0.2,0.1-0.3,0.1-0.4,0.2l-0.2,0.1l-0.3,0.1l0,0
		c-2.8,1.1-5.7,1.8-8.4,1.8c-0.1,0-0.2,0-0.3,0c-4.3,0-7.7-2-11.3-3.9c-0.1-0.1-0.3-0.1-0.4-0.1c-0.2,0-0.3,0.1-0.4,0.2
		c-0.1,0.1-0.2,0.3-0.2,0.4c0,0.2,0.1,0.4,0.3,0.5c3.3,2.9,6.9,5.5,11.8,5.5c0.1,0,0.2,0,0.3,0c3.1-0.1,6.6-1.1,9.3-2.8l0,0
		c0.4-0.2,0.7-0.4,1-0.7c0.2-0.2,0.4-0.4,0.3-0.6C388.8,348.5,388.4,348.2,388,348.2z"/>
	<path id="path181" fill="#FFFFFF" d="M391.8,346.6L391.8,346.6c0-0.3-0.1-0.5-0.2-0.6l0,0l0,0c-0.1-0.1-0.2-0.2-0.3-0.2
		c-0.4-0.2-0.9-0.2-1.5-0.2c-0.4,0-0.9,0.1-1.5,0.2v-0.1l-0.5,0.2l0,0l-0.3,0.1l0,0c-0.3,0.2-0.6,0.3-0.9,0.5
		c-0.2,0.1-0.3,0.3-0.3,0.6c0,0.2,0.1,0.3,0.2,0.4c0.1,0.1,0.3,0.1,0.4,0.1c0.1,0,0.1,0,0.1,0l0,0l0,0c0.3-0.1,0.6-0.1,1-0.2
		c0.4-0.1,0.8-0.1,1.1-0.1c0.2,0,0.4,0,0.6,0.1c0.1,0,0.1,0.1,0.2,0.1l0,0c0,0,0,0.1,0,0.2c0,0.3-0.1,0.8-0.3,1.3s-0.3,1-0.5,1.4
		c-0.1,0.1-0.1,0.2-0.1,0.3s0.1,0.3,0.2,0.4c0.1,0.1,0.3,0.2,0.4,0.2l0,0c0.2,0,0.3-0.1,0.5-0.2c1.3-1.1,1.7-3,1.7-4L391.8,346.6z"
		/>
	<path id="path183" fill="#FFFFFF" d="M380.2,334.3c-0.8,0.1-1.6,0.1-2.5,0.2c-1.3,0.2-2.7,0.4-3.7,0.9c-2.1,0.9-3.6,2.7-3.6,5.4
		c0,3.4,2.2,5.1,4.9,5.1c0.9,0,1.7-0.1,2.4-0.3c1.1-0.3,2-1,3.1-2.1c0.6,0.9,0.8,1.2,1.9,2.2c0.3,0.1,0.6,0.1,0.8-0.1
		c0.7-0.6,1.9-1.6,2.5-2.2c0.3-0.2,0.2-0.6,0.1-0.9c-0.6-0.8-1.2-1.5-1.2-3v-5.2c0-2.2,0.2-4.2-1.5-5.7c-1.3-1.2-3.4-1.7-5-1.7h-0.7
		c-2.9,0.2-6.1,1.5-6.7,5.1c-0.1,0.5,0.2,0.6,0.5,0.7l3.2,0.4c0.3-0.1,0.5-0.3,0.6-0.6c0.3-1.2,1.3-1.9,2.5-2h0.2
		c0.7,0,1.5,0.3,1.8,0.9c0.4,0.7,0.4,1.6,0.4,2.4L380.2,334.3L380.2,334.3z M379.5,341.2c-0.4,0.8-1.1,1.3-1.8,1.5
		c-0.1,0-0.3,0.1-0.5,0.1c-1.2,0-2-1-2-2.4c0-1.8,1.1-2.7,2.5-3.1c0.8-0.2,1.6-0.2,2.5-0.2v0.7C380.2,339,380.2,340,379.5,341.2z"/>
</g>
<path id="path185" fill="#FFFFFF" d="M499.6,273.4h-25.5c-0.3,0-0.5,0.3-0.5,0.5v25.5c0,0.3,0.3,0.5,0.5,0.5h25.5
	c0.3,0,0.5-0.3,0.5-0.5v-25.5C500.2,273.6,499.9,273.4,499.6,273.4z M486.9,298.9v-12.2h-12.2v-12.2h12.2v12.2h12.2v12.2H486.9z"/>
<g id="g187">
	<path id="path189" fill="#FFFFFF" d="M488.1,337.4c0.2-0.1,0.4-0.3,0.5-0.4c0.5-0.4,0.8-1,1-1.6c0.3-0.9-0.1-1.7-0.6-2.2
		c-0.3-0.2-0.8-0.4-1.2-0.4H485l-0.1,0.4l-1.1,4.7h2.6C487,337.9,487.5,337.7,488.1,337.4z M486.4,334.7h1.2c0.1,0,0.1,0,0.1,0
		c0,0.1,0,0.1,0,0.2v0.1v0.1c-0.2,0.6-0.8,1.1-1.4,1.1h-0.3L486.4,334.7z"/>
	<path id="path191" fill="#FFFFFF" d="M498.6,333.9c-0.5-0.6-1.2-1.2-1.9-1.6c-0.3-1.1-0.8-1.9-1.2-2.5c-1.3-1.6-3.4-2.6-5.7-2.6
		h-9.5h-1.5l-0.3,1.5l-4.2,18.7l-0.5,2.2h2.3h1.8l-0.4,1.9l-0.5,2.2h2.3h5.6h1.5l0.3-1.5l1-4.8h2.5c4.8,0,8.6-3,9.6-7.6
		C500.4,337,499.5,335,498.6,333.9z M478.3,347.7h-2.2l4.2-18.7h9.5c1.7,0,3.7,0.8,4.7,2.5c0.3,0.6,0.5,1.2,0.6,2.1
		c0.1,0.5,0,1.1-0.2,1.8c-0.3,1.5-1,2.8-1.9,3.7c-1.5,1.5-3.5,2.3-5.7,2.4c-0.1,0-0.1,0-0.2,0h-3.9l-1.4,6.2h-1.5H478.3z M498,339.5
		c-0.9,3.8-4,6.1-7.8,6.1h-3.9l-1.4,6.2h-5.6l0.5-2.3h1.8h1.5l0.3-1.5l1-4.8h2.5c4.8,0,8.6-3,9.6-7.6c0.1-0.4,0.2-0.8,0.2-1.1
		C497.8,335.7,498.4,337.3,498,339.5z"/>
</g>
<g id="g193">
	<polygon id="polygon195" fill="#FFFFFF" points="534.3,221.6 535.4,221.6 535.4,222.8 536.6,222.8 536.6,219.2 535.4,219.2 
		535.4,220.3 534.3,220.3 534.3,219.2 533.1,219.2 533.1,222.8 534.3,222.8 	"/>
	<polygon id="polygon197" fill="#FFFFFF" points="538.1,222.8 539.4,222.8 539.4,220.4 540.4,220.4 540.4,219.2 537.1,219.2 
		537.1,220.4 538.1,220.4 	"/>
	<polygon id="polygon199" fill="#FFFFFF" points="542.1,221 543,222.3 543,222.3 543.8,221 543.8,222.8 545,222.8 545,219.2 
		543.7,219.2 543,220.4 542.2,219.2 541,219.2 541,222.8 542.1,222.8 	"/>
	<polygon id="polygon201" fill="#FFFFFF" points="548.5,221.6 546.8,221.6 546.8,219.2 545.6,219.2 545.6,222.8 548.5,222.8 	"/>
	<path id="path203" fill="#FFFFFF" d="M531.4,224.3l1.7,19.2l7.7,2.1l7.7-2.1l1.7-19.2H531.4z M546.5,230.6h-5.7h-3.4l0.2,2.4h3.1
		h5.5l-0.6,7.2l-4.8,1.4l0,0l-4.8-1.4l-0.3-3.8h2.4l0.2,1.9l2.7,0.7l0,0l0,0l2.7-0.7l0.3-3.1h-2.9l0,0h-5.2l-0.6-7.1h5.9h5.9
		L546.5,230.6z"/>
</g>
<path id="path205" fill="#FFFFFF" d="M527.7,287c3.4,0,6.5,1.3,8.9,3.7c2.4,2.4,3.7,5.6,3.7,8.9h5.1c0-9.8-8-17.7-17.7-17.7V287z
	 M527.7,277.9c12,0,21.6,9.7,21.6,21.7h5.1c0-14.8-12-26.9-26.8-26.9V277.9z M534.8,296c0,1.9-1.6,3.6-3.6,3.6
	c-1.9,0-3.6-1.6-3.6-3.6c0-2,1.6-3.6,3.6-3.6C533.3,292.5,534.8,294.1,534.8,296z"/>
<polygon id="polygon207" fill="#FFFFFF" points="554.8,343.3 528.1,343.3 528.1,336.9 531.1,336.9 531.1,340.3 551.8,340.3 
	551.8,336.9 554.8,336.9 "/>
<path id="path209" fill="#FFFFFF" d="M176.1,224.4c-1,0.4-2.1,0.7-3.1,0.9c1.1-0.7,2-1.7,2.4-3c-1.1,0.6-2.2,1.1-3.5,1.4
	c-1-1.1-2.4-1.7-4-1.7c-3,0-5.5,2.4-5.5,5.5c0,0.4,0.1,0.9,0.2,1.2c-4.5-0.2-8.5-2.4-11.3-5.7c-0.5,0.8-0.8,1.7-0.8,2.8
	c0,1.9,1,3.6,2.4,4.5c-0.9-0.1-1.7-0.3-2.5-0.7v0.1c0,2.7,1.9,4.9,4.4,5.4c-0.4,0.1-0.9,0.2-1.5,0.2c-0.4,0-0.7-0.1-1-0.1
	c0.7,2.2,2.7,3.7,5.1,3.8c-1.9,1.5-4.2,2.3-6.8,2.3c-0.4,0-0.9,0-1.3-0.1c2.4,1.6,5.3,2.4,8.4,2.4c10.1,0,15.6-8.3,15.6-15.6
	c0-0.2,0-0.5,0-0.7C174.4,226.5,175.3,225.5,176.1,224.4z"/>
<g id="g211">
	<path id="path213" fill="#FFFFFF" d="M95.1,404.2l10.7,1.6v-10.3H95.1V404.2z M95.1,394h10.7v-10.3l-10.7,1.6V394z M107.3,406
		l14.4,2.1v-12.6h-14.4V406z M107.3,383.6v10.5h14.4v-12.6L107.3,383.6z"/>
</g>
<path id="path215" fill="#FFFFFF" d="M163.1,381.1c-7.4,0-11,5.2-11,9.7c0,2.7,1,5,3.2,5.9c0.4,0.2,0.6,0,0.8-0.4
	c0.1-0.3,0.2-1,0.3-1.2c0.1-0.4,0.1-0.5-0.2-0.9c-0.6-0.8-1-1.7-1-3c0-3.9,2.9-7.4,7.6-7.4c4.2,0,6.4,2.5,6.4,6
	c0,4.4-1.9,8.2-4.9,8.2c-1.6,0-2.8-1.4-2.4-3c0.5-1.9,1.4-4.1,1.4-5.5c0-1.2-0.7-2.3-2.1-2.3c-1.7,0-3,1.7-3,4
	c0,1.5,0.5,2.4,0.5,2.4s-1.7,7.2-2,8.4c-0.6,2.5-0.1,5.6-0.1,5.9c0,0.2,0.3,0.2,0.4,0.1c0.2-0.2,2.1-2.7,2.8-5.1
	c0.2-0.7,1.1-4.3,1.1-4.3c0.5,1,2.1,1.9,3.8,1.9c5,0,8.3-4.5,8.3-10.6C172.9,385.3,169,381.1,163.1,381.1z"/>
<path id="path217" fill="#FFFFFF" d="M204.4,397.1c0.1,0,0.1-0.1,0.1-0.1l0.3-2.3l-0.3-2.4c0-0.1-0.1-0.1-0.1-0.1s-0.1,0.1-0.1,0.1
	l-0.3,2.4l0.3,2.3C204.3,397,204.4,397.1,204.4,397.1z M203.6,396.1L203.6,396.1L203.6,396.1L203.6,396.1z M203.5,396.2
	c0.1,0,0.1-0.1,0.1-0.1l0.2-1.5l-0.2-1.5c0-0.1-0.1-0.1-0.1-0.1c-0.1,0-0.1,0.1-0.1,0.1l-0.2,1.5l0.2,1.5
	C203.4,396.2,203.4,396.2,203.5,396.2z M205.6,391.8c0-0.1-0.1-0.1-0.1-0.1s-0.1,0.1-0.1,0.1l-0.3,2.9l0.3,2.8
	c0,0.1,0.1,0.1,0.1,0.1s0.1-0.1,0.1-0.1l0.3-2.8L205.6,391.8z M206.6,397.6c0.1,0,0.2-0.1,0.2-0.2l0,0l0.3-2.8l-0.3-2.9
	c0-0.1-0.1-0.2-0.2-0.2s-0.2,0.1-0.2,0.2l-0.2,2.9l0.2,2.8C206.4,397.6,206.5,397.6,206.6,397.6z M207.6,397.7
	c0.1,0,0.2-0.1,0.2-0.2l0,0l0.3-2.9l-0.3-2.7c0-0.1-0.1-0.2-0.2-0.2c-0.1,0-0.2,0.1-0.2,0.2l-0.2,2.7l0.2,2.9
	C207.5,397.6,207.5,397.7,207.6,397.7z M209.2,394.7l-0.2-4.4c0-0.1-0.1-0.2-0.2-0.2c-0.1,0-0.2,0.1-0.2,0.2l-0.2,4.4l0.2,2.9
	c0,0.1,0.1,0.2,0.2,0.2s0.2-0.1,0.2-0.2l0,0L209.2,394.7z M209.8,397.7c0.1,0,0.2-0.1,0.2-0.2l0,0l0.2-2.8l-0.2-5.4
	c0-0.1-0.1-0.2-0.2-0.2s-0.2,0.1-0.2,0.2l-0.2,5.4l0.2,2.8C209.6,397.6,209.6,397.7,209.8,397.7z M210.9,388.5
	c-0.1,0-0.2,0.1-0.3,0.3l-0.2,5.8l0.2,2.8c0,0.2,0.1,0.3,0.3,0.3c0.1,0,0.2-0.1,0.3-0.3l0,0l0.2-2.8l-0.2-5.8
	C211.1,388.6,211,388.5,210.9,388.5z M212,397.7c0.2,0,0.3-0.1,0.3-0.3l0,0l0.2-2.8l-0.2-6.1c0-0.2-0.1-0.3-0.3-0.3
	c-0.2,0-0.3,0.1-0.3,0.3l-0.2,6.1l0.2,2.8C211.7,397.6,211.8,397.7,212,397.7z M213.1,397.7c0.2,0,0.3-0.1,0.3-0.3l0,0l0.2-2.8
	l-0.2-5.9c0-0.2-0.1-0.3-0.3-0.3c-0.2,0-0.3,0.1-0.3,0.3l-0.2,5.9l0.2,2.8C212.8,397.6,212.9,397.7,213.1,397.7z M214.7,394.7
	l-0.2-5.7c0-0.2-0.2-0.3-0.3-0.3s-0.3,0.2-0.3,0.3l-0.2,5.7l0.2,2.8c0,0.2,0.2,0.3,0.3,0.3c0.2,0,0.3-0.2,0.3-0.3l0,0L214.7,394.7z
	 M215.3,397.7c0.2,0,0.3-0.2,0.3-0.3l0,0l0.2-2.7l-0.2-6.8c0-0.2-0.2-0.3-0.3-0.3c-0.2,0-0.3,0.2-0.3,0.3l-0.1,6.8l0.1,2.7
	C215,397.6,215.2,397.7,215.3,397.7z M216.5,386.9c-0.2,0-0.4,0.2-0.4,0.4l-0.2,7.4l0.2,2.7c0,0.2,0.2,0.4,0.4,0.4s0.4-0.2,0.4-0.4
	l0,0l0.2-2.7l-0.2-7.4C216.8,387.1,216.6,386.9,216.5,386.9z M217.5,397.7c0,0,9,0,9.1,0c1.8,0,3.3-1.5,3.3-3.3s-1.5-3.3-3.3-3.3
	c-0.4,0-0.9,0.1-1.2,0.3c-0.3-3-2.8-5.3-5.8-5.3c-0.8,0-1.5,0.2-2.1,0.4c-0.3,0.1-0.3,0.2-0.3,0.4v10.4
	C217.1,397.5,217.3,397.7,217.5,397.7z"/>
<g id="g219">
	<polygon id="polygon221" fill="#FFFFFF" points="266.7,399.6 266.6,399.6 266.5,399.8 262.9,406.2 262.7,406.6 263.1,406.6 
		280.1,406.6 280.3,406.6 280.4,406.4 284,400.1 284.2,399.6 283.8,399.6 	"/>
	<polygon id="polygon223" fill="#FFFFFF" points="276.2,398.1 276.3,398.2 276.5,398.2 283.8,398.1 284.2,398.1 284,397.7 
		275.5,383 275.4,382.9 275.3,382.9 267.9,382.9 267.5,382.9 267.7,383.3 	"/>
	<polygon id="polygon225" fill="#FFFFFF" points="270.1,390.5 270,390.4 266.3,384 266.1,383.7 265.9,384 257.3,398.8 257.3,398.9 
		257.3,399.1 261,405.4 261.3,405.8 261.5,405.4 270,390.6 	"/>
</g>
<g id="g227">
	<path id="path229" fill="#FFFFFF" d="M328.6,383.3l0.3-0.4l0.3-0.4l0.6-1c0.1-0.1,0.1-0.3-0.1-0.4c-0.1-0.1-0.3-0.1-0.4,0.1l-0.7,1
		l-0.3,0.4l-0.3,0.4c-1-0.4-2-0.6-3.1-0.6c-1.1,0-2.2,0.2-3.1,0.6l-0.3-0.4l-0.3-0.4l-0.7-1c-0.1-0.1-0.2-0.2-0.4-0.1
		c-0.1,0.1-0.2,0.2-0.1,0.4l0.6,1l0.3,0.4l0.3,0.4c-2.2,1-3.7,3-3.7,5.2h14.7C332.3,386.4,330.8,384.4,328.6,383.3z M321.8,386.5
		c-0.4,0-0.8-0.4-0.8-0.8s0.4-0.8,0.8-0.8c0.4,0,0.8,0.4,0.8,0.8C322.6,386.2,322.2,386.5,321.8,386.5z M328.1,386.5
		c-0.4,0-0.8-0.4-0.8-0.8s0.4-0.8,0.8-0.8s0.8,0.4,0.8,0.8C328.9,386.2,328.5,386.5,328.1,386.5z"/>
	<path id="path231" fill="#FFFFFF" d="M317.7,389.7h-0.1v1.3v1.1v9.1c0,0.9,0.8,1.7,1.7,1.7h1.2c-0.1,0.2-0.1,0.3-0.1,0.4v0.1v0.5
		v2.7c0,0.9,0.7,1.6,1.6,1.6c0.9,0,1.6-0.7,1.6-1.6V404v-0.5v-0.1c0-0.2,0-0.3-0.1-0.4h2.9c-0.1,0.2-0.1,0.3-0.1,0.4v0.1v0.5v2.7
		c0,0.9,0.7,1.6,1.6,1.6c0.9,0,1.6-0.7,1.6-1.6V404v-0.5v-0.1c0-0.2,0-0.3-0.1-0.4h1.2c0.9,0,1.7-0.8,1.7-1.7v-9.1V391v-1.3h-0.1
		H317.7z"/>
	<path id="path233" fill="#FFFFFF" d="M315,389.7c-0.9,0-1.6,0.7-1.6,1.6v6.7c0,0.9,0.7,1.6,1.6,1.6c0.9,0,1.6-0.7,1.6-1.6v-6.7
		C316.5,390.4,315.8,389.7,315,389.7z"/>
	<path id="path235" fill="#FFFFFF" d="M334.9,389.7c-0.9,0-1.6,0.7-1.6,1.6v6.7c0,0.9,0.7,1.6,1.6,1.6c0.9,0,1.6-0.7,1.6-1.6v-6.7
		C336.5,390.4,335.8,389.7,334.9,389.7z"/>
</g>
<g id="g237">
	<path id="path239" fill="#FFFFFF" d="M376.2,393.5c0,0,2.5-0.2,2.5-3.2s-2.1-4.4-4.7-4.4h-4.9H369h-3.7v16.7h3.7h0.2h4.9
		c0,0,5.3,0.2,5.3-4.9C379.4,397.6,379.6,393.5,376.2,393.5z M369.2,388.9h4.2h0.6c0,0,1.2,0,1.2,1.7c0,1.7-0.7,2-1.5,2h-4.5
		L369.2,388.9L369.2,388.9z M373.8,399.6c-0.1,0-0.2,0-0.3,0h-4.3v-4.4h4.9c0,0,1.7,0,1.7,2.3C375.8,399.4,374.5,399.6,373.8,399.6z
		"/>
	<path id="path241" fill="#FFFFFF" d="M386.4,390.2c-6.4,0-6.4,6.4-6.4,6.4s-0.4,6.4,6.4,6.4c0,0,5.7,0.3,5.7-4.4h-2.9
		c0,0,0.1,1.8-2.7,1.8c0,0-2.9,0.2-2.9-2.9h8.7C392.2,397.4,393.2,390.2,386.4,390.2z M383.5,395.1c0,0,0.4-2.6,2.9-2.6
		c2.6,0,2.5,2.6,2.5,2.6H383.5z"/>
	<rect id="rect243" x="382.8" y="386.9" fill="#FFFFFF" width="6.9" height="2.1"/>
</g>
<g id="g245">
	<path id="path247" fill="#FFFFFF" d="M486.9,435.4c-7.4,0-13.3,6-13.3,13.3s6,13.3,13.3,13.3s13.3-6,13.3-13.3
		S494.3,435.4,486.9,435.4z M486.9,461c-6.8,0-12.2-5.5-12.2-12.2c0-6.8,5.5-12.2,12.2-12.2s12.2,5.5,12.2,12.2
		C499.1,455.5,493.6,461,486.9,461z"/>
	<polygon id="polygon249" fill="#FFFFFF" points="491.4,441.3 486.9,447.7 482.4,441.3 480.9,441.3 486.2,448.8 480.9,456.2 
		482.4,456.2 486.9,449.8 491.4,456.2 492.9,456.2 487.7,448.8 492.9,441.3 	"/>
</g>
<g id="g251">
	
		<rect id="rect253" x="104" y="445.2" transform="matrix(-0.8613 -0.508 0.508 -0.8613 -23.4124 886.1539)" fill="#FFFFFF" width="10.4" height="2.2"/>
	
		<rect id="rect255" x="102.5" y="449.1" transform="matrix(-0.9657 -0.2596 0.2596 -0.9657 94.744 912.986)" fill="#FFFFFF" width="10.4" height="2.2"/>
	
		<rect id="rect257" x="101.8" y="452.9" transform="matrix(-0.9958 -9.175244e-002 9.175244e-002 -0.9958 171.9213 915.9706)" fill="#FFFFFF" width="10.4" height="2.2"/>
	<rect id="rect259" x="101.6" y="456.3" fill="#FFFFFF" width="10.4" height="2.2"/>
	<path id="path261" fill="#FFFFFF" d="M113.8,460.3h-13.6v-9.1h-1.8V462l0,0H99h16.7l0,0v-0.5v-10.3h-1.8V460.3z"/>
	
		<rect id="rect263" x="107.4" y="441.6" transform="matrix(0.5634 0.8262 -0.8262 0.5634 414.964 100.2364)" fill="#FFFFFF" width="10.4" height="2.2"/>
	
		<rect id="rect265" x="116" y="435.8" transform="matrix(-0.9853 0.171 -0.171 -0.9853 307.8991 855.4119)" fill="#FFFFFF" width="2.2" height="10.4"/>
</g>
<g id="g267">
	<path id="path269" fill="#FFFFFF" d="M67.5,448.5L67.5,448.5c0.1,0,0.1-0.1,0.1-0.1c0-0.1,0-0.1-0.1-0.1c-1.2-0.2-2.2-0.5-5.2-0.4
		c0.2-0.7,0.3-1.6,0.3-2.5c0-2.7-1.3-3.7-1.6-4.1c0.4-2.1-0.1-3-0.3-3.3c-0.8-0.3-2.5,0.6-3.5,1.4c-1.6-0.5-5-0.4-6.3,0.1
		c-2.4-1.7-3.6-1.5-3.6-1.5s-0.8,1.5-0.2,3.6c-0.8,1-1.4,1.7-1.4,3.6c0,1,0.1,2,0.4,2.8c-1.2,0-3.8,0.2-5,0.5
		c-0.1,0-0.1,0.1-0.1,0.1c0,0.1,0.1,0.1,0.1,0.1l0,0c1.2-0.3,3.9-0.5,5.1-0.4c0.1,0.2,0.2,0.3,0.2,0.5c-3,0.1-3.8,0.5-5,0.8
		c-0.1,0-0.2,0.1-0.3,0.1c-0.1,0-0.1,0.1-0.1,0.1s0.1,0.1,0.1,0.1l0,0c0.1,0,0.2-0.1,0.3-0.1c1.2-0.3,2.1-0.8,5.1-0.8
		c0.9,1.6,2.6,2.6,5.5,2.9c-0.4,0.3-0.9,0.9-1,1.6c-0.5,0.3-1.6,0.4-2.4,0.2c-1.1-0.4-1.6-2.6-3.3-2.3c-0.4,0.1-0.3,0.3,0,0.5
		c0.5,0.3,1,0.8,1.4,1.7c0.3,0.7,0.9,1.9,2.8,1.9c0.8,0,1.3-0.1,1.3-0.1s0,1.7,0,2.4c0,0.8-1.1,1-1.1,1.4c0,0.2,0.3,0.2,0.6,0.2
		c0.5,0,1.7-0.5,1.7-1.3c0-0.6,0-2.8,0-3.2c0-0.8,0.4-1.1,0.4-1.1s0.1,4.4-0.1,5c-0.2,0.7-0.5,0.6-0.5,0.9c0,0.5,1.4,0.1,1.8-0.9
		c0.4-0.8,0.2-5.2,0.2-5.2h0.4c0,0,0,2,0,2.9c0,1-0.1,2.2,0.5,2.7c0.4,0.4,1.6,1,1.6,0.4c0-0.3-0.6-0.6-0.6-1.6c0-1,0-4,0-4.3
		c0.5,0,0.4,1.4,0.4,1.4l0.1,2.7c0,0-0.1,1,1,1.4c0.4,0.2,1.3,0.2,1.3-0.1c0.1-0.2-1-0.6-1.1-1.4c0-0.4,0-0.7,0-2.7
		c0-1.9-0.3-2.7-1.2-3.3c2.9-0.3,4.6-1,5.5-2.9c1,0.1,3,0.1,5.5,0.9l0,0c0.1,0,0.1,0,0.1-0.1c0-0.1,0-0.1-0.1-0.1
		c-2.4-0.7-4.4-0.8-5.4-0.9c0.1-0.2,0.1-0.3,0.2-0.5C65.4,448,66.3,448.3,67.5,448.5z M46,451.6c-0.1,0-0.2-0.1-0.2-0.2
		c0-0.1,0.1-0.2,0.2-0.2c0.1,0,0.2,0.1,0.2,0.2C46.2,451.5,46.1,451.6,46,451.6z M46.4,451.7c0-0.1,0.1-0.2,0.2-0.2s0.2,0.1,0.2,0.2
		c0,0.1-0.1,0.2-0.2,0.2C46.5,451.9,46.4,451.8,46.4,451.7z M46.8,452.2c0-0.1,0.1-0.2,0.2-0.2c0.1,0,0.2,0.1,0.2,0.2
		c0,0.1-0.1,0.2-0.2,0.2C46.9,452.4,46.8,452.3,46.8,452.2z M47.3,452.9c-0.1,0-0.2-0.1-0.2-0.2c0-0.1,0.1-0.2,0.2-0.2
		c0.1,0,0.2,0.1,0.2,0.2C47.6,452.8,47.4,452.9,47.3,452.9z M47.8,453.4c-0.1,0-0.2-0.1-0.2-0.2c0-0.1,0.1-0.2,0.2-0.2
		c0.1,0,0.2,0.1,0.2,0.2C47.9,453.3,47.9,453.4,47.8,453.4z M48.3,453.8c-0.1,0-0.2-0.1-0.2-0.2c0-0.1,0.1-0.2,0.2-0.2
		c0.1,0,0.2,0.1,0.2,0.2C48.5,453.7,48.4,453.8,48.3,453.8z M49,454.1c-0.1,0-0.2-0.1-0.2-0.2c0-0.1,0.1-0.2,0.2-0.2
		c0.1,0,0.2,0.1,0.2,0.2C49.2,454,49.1,454.1,49,454.1z M49.8,454.1c-0.1,0-0.2-0.1-0.2-0.2c0-0.1,0.1-0.2,0.2-0.2
		c0.1,0,0.2,0.1,0.2,0.2C50,454,49.9,454.1,49.8,454.1z M50.5,453.9c-0.1,0-0.2-0.1-0.2-0.2c0-0.1,0.1-0.2,0.2-0.2s0.2,0.1,0.2,0.2
		C50.7,453.9,50.6,453.9,50.5,453.9z M56.3,451c-0.6,0-1.2,0.1-1.9,0.1c-0.6,0-1.3,0-1.8-0.1c-3.1-0.1-4.9-1.4-4.9-3.7
		c0-0.2,0.1-1.1,0.7-1.8s1.6-1.1,2.8-1.1c0.1,0,0.2,0,0.5,0.1c0.6,0.1,1.7,0.1,2.8,0.1c1,0,1.9-0.1,2.4-0.1c0.2,0,0.3,0,0.4,0
		c2.5,0,3.5,1.6,3.5,3.1C60.8,449,60,450.9,56.3,451z"/>
	<path id="path271" fill="#FFFFFF" d="M45.3,453c0.5,0,0-0.8,0-1.1C45.3,452.2,44.9,453,45.3,453z"/>
	<path id="path273" fill="#FFFFFF" d="M54.9,449.7c-0.1,0-0.1,0.1-0.1,0.1c0,0.2-0.2,0.4-0.5,0.4c-0.1,0-0.1,0-0.1,0
		c-0.1,0-0.2-0.1-0.3-0.1c0,0-0.1,0-0.1-0.1c-0.1-0.1-0.1-0.1-0.1-0.1s-0.1-0.1-0.1-0.2c0-0.1-0.1-0.1-0.1-0.1
		c-0.1,0-0.1,0.1-0.1,0.1c0,0,0,0.1,0,0.1c0,0.1,0.1,0.1,0.1,0.2c0.1,0.1,0.1,0.1,0.2,0.2c0.1,0.1,0.1,0.1,0.2,0.1
		c0.1,0.1,0.2,0.1,0.3,0.1c0.1,0,0.1,0,0.1,0c0.2,0,0.4-0.1,0.5-0.2l0.1-0.1c0.1-0.1,0.1-0.1,0.1-0.1c0.1-0.1,0.1-0.2,0.1-0.3v-0.1
		C55,449.8,55,449.7,54.9,449.7z"/>
	<path id="path275" fill="#FFFFFF" d="M54,449.2c0,0.1,0.1,0.1,0.1,0.1c0,0,0,0,0.1,0c0.1,0,0.1,0,0.1,0.1h0.1c0.1,0,0.1,0,0.2-0.1
		l0.1-0.1c0,0,0.1-0.1,0.1-0.1s0-0.1,0-0.1c0-0.2-0.2-0.3-0.3-0.3c-0.1,0-0.2,0.1-0.2,0.1l0,0l-0.1,0.1c0,0.1-0.1,0.1-0.1,0.1v0.1
		v0.1C54,449.2,54,449.2,54,449.2z"/>
	<path id="path277" fill="#FFFFFF" d="M51.7,445.9c-0.1-0.1-0.1-0.2-0.2-0.2c-0.1-0.1-0.2-0.1-0.2-0.2c-0.1-0.1-0.2-0.1-0.3-0.1
		c-0.1,0-0.1,0-0.1,0c-0.7,0-1.3,0.9-1.3,1.9s0.6,1.8,1.3,1.8c0.1,0,0.1,0,0.1,0c0.1,0,0.2-0.1,0.3-0.1c0.1-0.1,0.2-0.1,0.2-0.1
		c0.1-0.1,0.2-0.1,0.2-0.2c0.1-0.1,0.1-0.2,0.2-0.2c0.2-0.3,0.3-0.7,0.3-1.2c0-0.5-0.1-0.9-0.3-1.2C51.8,446.1,51.7,446,51.7,445.9z
		"/>
	<path id="path279" fill="#FFFFFF" d="M57.9,445.5c-0.7,0-1.3,0.9-1.3,1.9c0,1.1,0.6,1.8,1.3,1.8c0.7,0,1.3-0.8,1.3-1.8
		C59.2,446.4,58.6,445.5,57.9,445.5z"/>
</g>
<g id="g281">
	<path id="path283" fill="#FFFFFF" d="M218.3,446.6l1.8,0.9l2.7-0.8v-1.9c-0.1-3.2-2.7-5.7-5.9-5.7c-3.2,0-5.8,2.5-5.9,5.7v8.5
		c0,0.8-0.6,1.4-1.4,1.4c-0.8,0-1.4-0.6-1.4-1.4v-3.6h-4.5c0,0,0,3.6,0,3.7c0,3.2,2.7,5.9,5.9,5.9c3.2,0,5.8-2.6,5.9-5.8v-8.4
		c0-0.8,0.6-1.4,1.4-1.4s1.4,0.6,1.4,1.4L218.3,446.6L218.3,446.6z"/>
	<path id="path285" fill="#FFFFFF" d="M225.7,449.6v3.8c0,0.8-0.6,1.4-1.4,1.4s-1.4-0.6-1.4-1.4v-3.7l-2.7,0.8l-1.8-0.9v3.7
		c0.1,3.2,2.7,5.8,5.9,5.8s5.9-2.7,5.9-5.9c0-0.1,0-3.7,0-3.7L225.7,449.6L225.7,449.6z"/>
</g>
<g id="g287">
	<polygon id="polygon289" fill="#FFFFFF" points="268.6,444.9 266.8,453.1 268.9,453.1 270.7,444.9 	"/>
	<path id="path291" fill="#FFFFFF" d="M265.4,444.9l-2.2,5.6l-0.9-4.8c-0.1-0.5-0.5-0.8-1-0.8h-3.6l-0.1,0.2
		c0.8,0.2,1.6,0.4,2.1,0.7c0.3,0.2,0.4,0.3,0.5,0.7l1.7,6.5h2.3l3.5-8.2L265.4,444.9L265.4,444.9z"/>
	<path id="path293" fill="#FFFFFF" d="M282.2,444.9h-1.8c-0.4,0-0.8,0.2-0.9,0.6l-3.2,7.6h2.2l0.4-1.2h2.7l0.3,1.2h1.9L282.2,444.9z
		 M279.7,450.2l1.1-3.1l0.6,3.1H279.7z"/>
	<path id="path295" fill="#FFFFFF" d="M273.5,447.2c0-0.3,0.3-0.6,0.9-0.7c0.3-0.1,1.1-0.1,2.1,0.4l0.4-1.7c-0.5-0.2-1.2-0.4-2-0.4
		c-2.1,0-3.6,1.1-3.6,2.7c0,1.2,1.1,1.8,1.8,2.2c0.8,0.4,1.1,0.6,1.1,1c0,0.5-0.6,0.8-1.3,0.8c-1.1,0-1.7-0.3-2.2-0.5l-0.4,1.8
		c0.5,0.2,1.4,0.4,2.4,0.4c2.2,0,3.7-1.1,3.7-2.8C276.5,448.3,273.4,448.2,273.5,447.2z"/>
</g>
<g id="g297">
	<path id="path299" fill="#FFFFFF" d="M316.8,449.7c0,0.2,0.1,0.3,0.3,0.3c0.4,0,0.6-0.3,0.6-0.8c-0.1,0-0.1,0-0.2,0
		C317,449.2,316.8,449.3,316.8,449.7z"/>
	<path id="path301" fill="#FFFFFF" d="M330.6,449.7c0,0.2,0.1,0.3,0.3,0.3c0.4,0,0.6-0.3,0.6-0.8c-0.1,0-0.1,0-0.2,0
		C330.9,449.2,330.6,449.3,330.6,449.7z"/>
	<path id="path303" fill="#FFFFFF" d="M324.1,448c-0.3,0-0.5,0.2-0.5,0.6h1C324.4,448.5,324.6,448,324.1,448z"/>
	<path id="path305" fill="#FFFFFF" d="M335.8,448.1c-0.4,0-0.7,0.5-0.7,1.1c0,0.4,0.2,0.6,0.4,0.6c0.4,0,0.7-0.5,0.7-1.1
		C336.2,448.3,336.1,448.1,335.8,448.1z"/>
	<path id="path307" fill="#FFFFFF" d="M330.1,440.5c-2.1,0-3.9,0.8-5.4,2.1c-1.4-1.3-3.3-2.1-5.4-2.1c-4.4,0-8.1,3.6-8.1,8.1
		s3.6,8.1,8.1,8.1c2.1,0,3.9-0.8,5.4-2.1c1.4,1.3,3.3,2.1,5.4,2.1c4.4,0,8.1-3.6,8.1-8.1C338.2,444,334.6,440.5,330.1,440.5z
		 M314.7,450.6l0.5-3.1l-1.1,3.1h-0.6l-0.1-3.1l-0.5,3.1h-0.8l0.7-4.1h1.2l0.1,2.5l0.9-2.5h1.4l-0.7,4.1H314.7z M317.6,450.6v-0.3
		c-0.2,0.3-0.5,0.4-0.9,0.4c-0.5,0-0.8-0.4-0.8-0.9c0-0.8,0.5-1.3,1.5-1.3c0.1,0,0.2,0,0.4,0c0.1-0.1,0.1-0.2,0.1-0.2
		c0-0.2-0.2-0.3-0.5-0.3c-0.4,0-0.8,0.1-0.9,0.2c0-0.1,0.1-0.8,0.1-0.8c0.4-0.1,0.7-0.2,1-0.2c0.8,0,1.1,0.3,1.1,1
		c0,0.2,0,0.4-0.1,0.6c-0.1,0.5-0.2,1.5-0.3,1.8C318.3,450.6,317.6,450.6,317.6,450.6z M320.2,448.7c0.4,0.2,0.6,0.5,0.6,0.9
		c0,0.8-0.4,1.1-1.4,1.1c-0.5,0-0.7-0.1-0.9-0.1c0-0.1,0.1-0.8,0.1-0.8c0.3,0.1,0.5,0.1,0.8,0.1c0.3,0,0.5-0.1,0.5-0.3
		c0-0.2-0.1-0.2-0.4-0.4c-0.5-0.2-0.6-0.5-0.6-0.9c0-0.6,0.3-1.1,1.3-1.1c0.2,0,0.5,0.1,0.8,0.1l-0.1,0.8c-0.2-0.1-0.4-0.1-0.6-0.1
		c-0.3,0-0.4,0.1-0.4,0.3C319.8,448.5,319.8,448.5,320.2,448.7z M322.2,449.9c0.1,0,0.2,0,0.2-0.1l-0.1,0.8
		c-0.2,0.1-0.4,0.1-0.6,0.1c-0.4,0-0.7-0.3-0.7-0.8c0-0.2,0.1-0.5,0.1-0.9c0.1-0.3,0.4-2.3,0.4-2.3h0.9l-0.1,0.5h0.4l-0.1,0.8h-0.4
		c-0.1,0.6-0.3,1.4-0.3,1.5C321.9,449.8,322,449.9,322.2,449.9z M324.2,449.9c0.3,0,0.6-0.1,0.9-0.2l-0.2,0.8
		c-0.3,0.1-0.6,0.1-0.9,0.1c-1,0-1.5-0.5-1.5-1.5c0-1.1,0.6-2,1.5-2c0.7,0,1.2,0.5,1.2,1.2c0,0.3-0.1,0.5-0.1,0.8h-1.7
		C323.4,449.8,323.7,449.9,324.2,449.9z M326.1,450.6h-0.9l0.1-0.2c0.2-1,0.3-2.1,0.4-3.1h0.8c0,0.2-0.1,0.3-0.1,0.5
		c0.3-0.4,0.5-0.6,0.9-0.5c-0.1,0.2-0.3,0.5-0.3,1C326.6,448.2,326.4,448.6,326.1,450.6z M329.5,450.6c-0.3,0.1-0.5,0.1-0.8,0.1
		c-0.9,0-1.5-0.7-1.5-1.8c0-1.5,0.8-2.5,2-2.5c0.4,0,0.8,0.2,1,0.2l-0.2,0.9c-0.3-0.2-0.5-0.2-0.8-0.2c-0.6,0-1.1,0.6-1.1,1.5
		c0,0.6,0.3,1,0.8,1c0.2,0,0.4-0.1,0.8-0.2L329.5,450.6z M332.2,450.6c-0.1,0-0.7,0-0.7,0v-0.3c-0.2,0.3-0.5,0.4-0.9,0.4
		c-0.5,0-0.8-0.4-0.8-0.9c0-0.8,0.5-1.3,1.5-1.3c0.1,0,0.2,0,0.4,0c0.1-0.1,0.1-0.2,0.1-0.2c0-0.2-0.2-0.3-0.5-0.3
		c-0.4,0-0.8,0.1-0.9,0.2c0-0.1,0.1-0.8,0.1-0.8c0.4-0.1,0.7-0.2,1-0.2c0.8,0,1.1,0.3,1.1,1c0,0.2,0,0.4-0.1,0.6
		C332.4,449.3,332.2,450.4,332.2,450.6z M333.4,450.6h-0.9l0.1-0.2c0.2-1,0.3-2.1,0.4-3.1h0.8c0,0.2-0.1,0.3-0.1,0.5
		c0.3-0.4,0.5-0.6,0.9-0.5c-0.1,0.2-0.3,0.5-0.3,1C333.8,448.2,333.7,448.6,333.4,450.6z M336,450.6l0.1-0.3
		c-0.2,0.3-0.5,0.4-0.8,0.4c-0.6,0-1.1-0.5-1.1-1.4c0-1.1,0.6-2.1,1.4-2.1c0.3,0,0.6,0.2,0.8,0.4l0.2-1.2h0.9l-0.6,4.1L336,450.6
		L336,450.6z"/>
</g>
<g id="g309">
	<path id="path311" fill="#FFFFFF" d="M391.2,453h-1.5v0.6h1.5c0.5,0,0.9-0.2,1-0.4c0.1-0.2,0.2-0.3,0.2-0.6s-0.1-0.4-0.2-0.6
		l-0.1-0.1c-0.2-0.2-0.4-0.3-0.9-0.3h-0.4c-0.1,0-0.2,0-0.3-0.1c-0.1-0.1-0.2-0.1-0.2-0.2c0-0.1,0.1-0.2,0.1-0.2
		c0.1-0.1,0.2-0.1,0.3-0.1h1.4v-16h-26.8v11.3l0.9-2.1h1.9l0.3,0.5v-0.5h2.3l0.5,1.1l0.5-1.1h7.3c0.3,0,0.6,0.1,0.9,0.3v-0.3h2v0.3
		c0.3-0.2,0.8-0.3,1.2-0.3h2.9l0.3,0.5v-0.5h2.2l0.3,0.5v-0.5h2.1v4.4h-2.1l-0.4-0.6v0.6h-2.7l-0.3-0.7h-0.6l-0.3,0.7h-1.4
		c-0.5,0-0.9-0.1-1.2-0.3v0.3h-3.2v-1c0-0.2,0-0.2-0.1-0.2h-0.1v1.1h-6.4v-0.5l-0.2,0.5h-1.3l-0.2-0.5v0.5h-2.5l-0.3-0.7H367
		l-0.3,0.7h-1.3v13.3h26.8v-8.1c-0.3,0.2-0.7,0.2-1.1,0.2h-1.9v-0.3c-0.2,0.2-0.6,0.3-1,0.3H382v-1c0-0.1,0-0.1-0.2-0.1h-0.1v1.1h-2
		V453c-0.3,0.2-0.7,0.2-1,0.2h-0.2v1h-2.4l-0.6-0.7l-0.6,0.7h-4v-4.4h4.1l0.6,0.6l0.6-0.6h2.7c0.3,0,0.8,0.1,1.1,0.3v-0.3h2.4
		c0.2,0,0.7,0.1,1,0.3v-0.3h3.7v0.3c0.2-0.2,0.6-0.3,0.9-0.3h2.1v0.3c0.2-0.2,0.5-0.3,0.9-0.3h1.4v0.6h-1.5c-0.8,0-1.1,0.5-1.1,0.9
		c0,1,0.9,1,1.6,1c0.1,0,0.2,0,0.3,0.1c0.1,0.1,0.1,0.1,0.1,0.2c0,0.1-0.1,0.2-0.1,0.2C391.4,452.9,391.3,453,391.2,453z"/>
	<path id="path313" fill="#FFFFFF" d="M383.4,451.4c0-0.4-0.2-0.5-0.4-0.7c-0.3-0.1-0.5-0.2-0.9-0.2h-1.7v3.1h0.8v-1.1h0.8
		c0.3,0,0.4,0.1,0.5,0.2c0.2,0.2,0.1,0.4,0.1,0.6v0.4h0.8V453c0-0.3,0-0.4-0.1-0.6c-0.1-0.1-0.2-0.2-0.4-0.3
		C383.1,452.1,383.4,451.8,383.4,451.4z M382.4,451.8c-0.1,0.1-0.2,0.1-0.4,0.1h-0.9v-0.7h0.9c0.1,0,0.3,0,0.4,0.1
		c0.1,0.1,0.2,0.2,0.2,0.3C382.6,451.6,382.5,451.7,382.4,451.8z"/>
	<path id="path315" fill="#FFFFFF" d="M378.8,450.5h-2.4l-1,1l-0.9-1h-3v3.1h3l1-1l0.9,1h1.5v-1.1h0.9c0.6,0,1.3-0.2,1.3-1.1
		C380,450.6,379.4,450.5,378.8,450.5z M374,453h-1.8v-0.6h1.7v-0.6h-1.7v-0.6h1.9l0.8,0.9L374,453z M377,453.4l-1.1-1.3l1.1-1.2
		V453.4z M378.8,451.9h-1v-0.8h1c0.3,0,0.5,0.1,0.5,0.4C379.2,451.8,379,451.9,378.8,451.9z"/>
	<path id="path317" fill="#FFFFFF" d="M383.3,445.7h0.7v-0.6h-0.7c-0.5,0-0.9,0.1-1.1,0.4c-0.3,0.3-0.4,0.8-0.4,1.2
		c0,0.6,0.2,0.9,0.4,1.2c0.3,0.3,0.7,0.3,1.1,0.3h0.9l0.3-0.7h1.6l0.3,0.7h1.5v-2.4l1.4,2.4h1.1v-3.1h-0.6v2.2l-1.3-2.2h-1.1v3
		l-1.3-3h-1.1l-1.1,2.5h-0.3c-0.2,0-0.4-0.1-0.5-0.2c-0.2-0.2-0.2-0.4-0.2-0.8c0-0.3,0.1-0.6,0.2-0.7
		C382.9,445.8,383,445.7,383.3,445.7z M385.2,445.6l0.5,1.2h-1.1L385.2,445.6z"/>
	<path id="path319" fill="#FFFFFF" d="M388.2,453h-1.5v0.6h1.5c0.8,0,1.2-0.3,1.2-1c0-0.3-0.1-0.5-0.2-0.6c-0.2-0.2-0.4-0.3-0.9-0.3
		H388c-0.1,0-0.2,0-0.3-0.1c-0.1-0.1-0.2-0.1-0.2-0.2s0.1-0.2,0.1-0.2s0.2-0.1,0.3-0.1h1.4v-0.6h-1.5c-0.8,0-1.1,0.5-1.1,0.9
		c0,1,0.9,1,1.6,1c0.1,0,0.2,0,0.3,0.1c0.1,0.1,0.1,0.1,0.1,0.2c0,0.1-0.1,0.2-0.1,0.2C388.5,452.9,388.4,453,388.2,453z"/>
	<path id="path321" fill="#FFFFFF" d="M368.1,447.5l0.3,0.7h1.5v-2.5l1.1,2.5h0.6l1.1-2.5v2.5h0.8v-3.1h-1.2l-0.9,2.2l-1-2.2h-1.2v3
		l-1.3-3h-1.1l-1.4,3.1h0.8l0.3-0.7H368.1z M367.3,445.6l0.5,1.2h-1L367.3,445.6z"/>
	<path id="path323" fill="#FFFFFF" d="M380.2,445.9c0-0.4-0.2-0.5-0.4-0.7c-0.3-0.2-0.5-0.2-0.9-0.2h-1.7v3.1h0.8V447h0.8
		c0.3,0,0.4,0,0.5,0.1c0.2,0.2,0.1,0.4,0.1,0.6v0.4h0.8v-0.6c0-0.3,0-0.4-0.1-0.6c-0.1-0.1-0.2-0.2-0.4-0.3
		C379.8,446.6,380.2,446.4,380.2,445.9z M379.2,446.3c-0.1,0.1-0.2,0.1-0.4,0.1h-0.9v-0.7h0.9c0.1,0,0.3,0,0.4,0.1
		c0.1,0.1,0.2,0.2,0.2,0.3C379.4,446.2,379.3,446.3,379.2,446.3z"/>
	<rect id="rect325" x="380.6" y="445.1" fill="#FFFFFF" width="0.8" height="3.1"/>
	<polygon id="polygon327" fill="#FFFFFF" points="386.3,451.1 386.3,450.5 383.9,450.5 383.9,453.6 386.3,453.6 386.3,453 
		384.6,453 384.6,452.3 386.3,452.3 386.3,451.7 384.6,451.7 384.6,451.1 	"/>
	<polygon id="polygon329" fill="#FFFFFF" points="376.7,445.7 376.7,445.1 374.1,445.1 374.1,448.2 376.7,448.2 376.7,447.6 
		374.9,447.6 374.9,446.9 376.6,446.9 376.6,446.3 374.9,446.3 374.9,445.7 	"/>
</g>
<g id="g331">
	<path id="path333" fill="#FFFFFF" d="M532,440.6L532,440.6h2.5c0.2,0,0.3-0.1,0.3-0.3c0,0-0.1-2.1-0.1-2.7l0,0
		c0-0.5,0.1-0.9,0.3-1.2l0.1-0.2c0,0,0,0-0.1,0l-4.8,4.8c0,0,0,0,0,0.1c0.1-0.1,0.2-0.1,0.3-0.1C530.9,440.7,531.4,440.6,532,440.6z
		"/>
	<path id="path335" fill="#FFFFFF" d="M551.3,440c-0.2-1-0.8-1.6-1.4-1.8s-1.8-0.4-3.4-0.6c-1.2-0.2-2.7-0.2-3.6-0.1
		c-0.1-0.7-0.6-1.4-1.2-1.6c-1.5-0.6-3.9-0.5-4.5-0.3c-0.5,0.1-1,0.4-1.3,0.8c-0.2,0.3-0.3,0.6-0.3,1.1c0,0.3,0,1,0,1.6s0,1.1,0,1.1
		c0,0.5-0.4,1-1,1h-2.5c-0.5,0-0.9,0.1-1.2,0.2c-0.3,0.2-0.5,0.3-0.7,0.5c-0.3,0.4-0.4,1-0.4,1.6c0,0,0,0.4,0.1,1.4
		c0.1,0.7,0.8,5.5,1.5,6.9c0.3,0.5,0.4,0.8,1,1c1.2,0.5,3.9,1.1,5.2,1.2c1.3,0.2,2.1,0.5,2.5-0.5c0,0,0.1-0.3,0.2-0.6
		c0.4-1.2,0.5-2.4,0.5-3.2c0-0.1,0.1-0.1,0.1,0c0,0.6-0.1,2.6,1.4,3.1c0.6,0.2,1.8,0.4,3.1,0.5c1.1,0.1,2,0.6,2,3.5
		c0,1.8-0.4,2.1-2.3,2.1c-1.6,0-2.2,0.1-2.2-1.2c0-1,1-0.9,1.8-0.9c0.3,0,0.1-0.3,0.1-0.9c0-0.6,0.4-1,0-1c-2.6-0.1-4.1,0-4.1,3.2
		c0,2.9,1.1,3.5,4.8,3.5c2.9,0,3.9-0.1,5.1-3.8c0.2-0.7,0.8-3,1.1-6.7C552.1,449,551.6,441.8,551.3,440z M546.3,447.9
		c-0.4,0-0.7,0-1,0.1c0.1-0.7,0.4-1.6,1.5-1.6c1.2,0.1,1.4,1.1,1.4,1.9C547.5,448.1,546.9,447.9,546.3,447.9z"/>
</g>
<polygon id="polygon337" fill="#FFFFFF" points="100.9,353 105.4,353 105.8,352.6 107.8,348.4 108.6,348 116,348 116,341.7 
	112,341.7 111.6,341.2 116,332.4 116,327.8 111.7,327.8 111.1,328.2 109.1,332.3 108.5,332.8 100.9,332.8 100.9,339.2 105.1,339.2 
	105.4,339.5 100.9,348.4 "/>
<g id="g10088_1_" transform="matrix(0.58397792,0,0,0.58397792,-520.1179,950.32031)">
	<path id="path10079_1_" fill="#FFFFFF" d="M1627.6-871.5c-1.8,0-3.4,0.4-4.9,1.1c-3.9,1.9-6.2,6.1-6.2,11.3c0,5.2,2.2,9.3,6.2,11.1
		c1.1,0.5,2.2,0.8,3.8,1c0.8,0.1,1.6,0.1,2.4,0c1.6-0.2,2.7-0.5,3.8-1c3.9-1.9,6.2-5.9,6.2-11.1c0-5.2-2.3-9.4-6.2-11.3
		C1631-871.1,1629.4-871.5,1627.6-871.5L1627.6-871.5z M1629.2-867.8c2.4,0.6,4.1,2.8,4.8,5.9c0.5,2.2,0.3,4.7-0.3,6.7
		c-1,3.1-3.2,4.9-6,4.8c-2.7,0.1-5-1.7-6-4.8c-0.6-2-0.8-4.5-0.3-6.7c0.6-3.1,2.4-5.2,4.8-5.9
		C1627.1-868.1,1628.2-868.1,1629.2-867.8L1629.2-867.8z"/>
	<path id="path10077_1_" fill="#FFFFFF" d="M1611.9-871.5c-1.3,0-2.4,1.1-2.4,2.4s1.1,2.4,2.4,2.4c1.3,0,2.4-1.1,2.4-2.4
		C1614.3-870.5,1613.2-871.5,1611.9-871.5z M1609.7-864.3v17.4h4.4v-17.4H1609.7z"/>
	<path id="path10039_1_" fill="#FFFFFF" d="M1645.2-847c-1.9-0.3-3.7-0.6-5.2-1.5c0,0,0.9-3.5,1-3.6c2.5,0.9,6,2,8.3,0.9
		c1.3-0.6,1.9-1.8,1.7-3.2c-0.2-1.6-1.3-2.4-4.2-3.5c-3.2-1.2-5.2-2.7-6-4.7c-0.4-1-0.5-2.2-0.3-3.2c0.5-3,2.8-5,6.3-5.7
		c1-0.2,3.2-0.2,4.3,0c1.6,0.3,3.4,0.9,3.4,1.1c0,0.1-0.9,3.3-1,3.4c-1.6-0.6-3.2-1-4.8-1.1c-2.1-0.1-4.3,1.2-3.9,3.4
		c0.3,1.4,1.1,2,4.3,3.3c2.4,1,3.5,1.6,4.4,2.6c1.4,1.4,1.8,2.9,1.8,4.5c0,1.3-0.1,1.9-0.6,2.9c-1.1,2.4-3.4,3.8-6.9,4.2
		C1647.2-847,1645.7-847,1645.2-847L1645.2-847z"/>
</g>
<g id="g343">
	<path id="path345" fill="#FFFFFF" d="M45.2,501.4c-0.4-0.1-0.7,0.1-0.9,0.7l-0.6,2.3c-1.1-2.1-1.4-2.5-1.4-2.7l0,0
		c-0.1-0.2-0.4-0.4-0.8-0.3c-0.4,0.2-0.6,0.5-0.4,1c0,0.1,1.8,3.7,1.8,3.7c0,0,0.1,0.1,0.1,0.2v0.1c0,0.1-0.1,0.2-0.1,0.3
		s-0.2,0.1-0.3,0.1c0,0-0.3,0-0.3,0c-0.3,0.1-0.5,0.3-0.6,0.5c0,0.2,0.1,0.4,0.2,0.5c0.2,0.2,0.4,0.2,0.8,0.2c0.2,0,0.3,0,0.5-0.1
		c0.5-0.1,0.8-0.3,1.1-1.3l1.4-4.4c0.1-0.3,0.1-0.5,0-0.6C45.6,501.6,45.4,501.5,45.2,501.4z"/>
	<path id="path347" fill="#FFFFFF" d="M49.8,501.8c-0.4-0.3-1.1-0.4-1.8-0.3c-1,0.2-1.5,0.9-1.7,1.9c-0.2,1.3,0.1,2.3,0.6,2.9
		c0.4,0.4,0.9,0.5,1.5,0.5c0.2,0,0.3,0,0.4-0.1c1.2-0.2,1.6-0.8,1.6-1.2c0-0.3-0.2-0.6-0.5-0.6c-0.2-0.1-0.3,0-0.6,0.3
		c-0.3,0.3-0.8,0.4-1.1,0.3c-0.3-0.1-0.5-0.3-0.5-0.5c0-0.1-0.1-0.1-0.1-0.2l0,0c0-0.1-0.1-0.3,0-0.3H50c0.2,0,0.4,0,0.5-0.1
		c0.2-0.2,0.2-0.6,0.1-1.2C50.4,502.6,50.2,502.1,49.8,501.8z M47.3,503.6c0-0.1,0-0.1,0-0.2c0-0.1,0.1-0.2,0.1-0.3l0.1-0.1
		c0.1-0.2,0.3-0.3,0.5-0.3c0.3-0.1,0.6-0.1,0.8,0.1c0.2,0.1,0.3,0.3,0.3,0.6c0,0.1,0,0.2,0,0.2L47.3,503.6L47.3,503.6z"/>
	<path id="path349" fill="#FFFFFF" d="M52.9,500.2L52.9,500.2c-0.1-0.2-0.2-0.3-0.3-0.4l0,0c-0.2-0.1-0.4-0.1-0.6,0.1
		c-0.2,0.1-0.3,0.3-0.3,0.6v5.6c0.1,0.2,0.1,0.2,0.1,0.2c0.1,0.2,0.2,0.3,0.3,0.4c0.1,0.1,0.2,0.1,0.3,0.1c0.1,0,0.2,0,0.3-0.1
		c0.2-0.1,0.4-0.3,0.4-0.6v-5.6C53,500.5,52.9,500.3,52.9,500.2z"/>
	<path id="path351" fill="#FFFFFF" d="M57.1,501.4c-0.5-0.1-1,0-1.5,0.3l-0.1,0.1h-0.1l-0.1-0.1l-0.1-0.1c-0.2-0.2-0.5-0.3-0.9-0.2
		c-0.2,0.1-0.3,0.3-0.3,0.6v5.5c0,0.3,0.1,0.5,0.4,0.7c0.1,0.1,0.2,0.1,0.3,0.1s0.2,0,0.3-0.1c0.2-0.1,0.3-0.2,0.3-0.4l0.1-0.3v-1
		v-0.2v-0.1l0.1,0.1c0,0,0.1,0,0.1,0.1l0.1,0.1l0.1,0.1c0.5,0.2,1.1,0.2,1.7-0.1c0.6-0.3,1-1,1.1-1.9
		C58.8,502.6,58.3,501.7,57.1,501.4z M57,505.6c-0.5,0-0.8-0.3-0.8-1.1l0,0c0-0.1,0-0.3,0-0.3v-0.2c0.1-1,0.3-1.2,0.6-1.2
		c0.3-0.1,0.5-0.1,0.6,0.1c0.3,0.2,0.4,0.6,0.3,1.4C57.8,505.1,57.6,505.6,57,505.6z"/>
	<path id="path353" fill="#FFFFFF" d="M59.6,505.4c-0.3,0-0.6,0.3-0.6,0.6s0.3,0.6,0.6,0.6s0.6-0.3,0.6-0.6S59.9,505.4,59.6,505.4z"
		/>
	<path id="path355" fill="#FFFFFF" d="M59.7,503.4c0.1,0.2,0.2,0.3,0.4,0.3l0,0c0.1,0,0.2-0.1,1.7-0.5c0.5-0.2,0.6-0.2,0.7-0.2
		c0.2-0.1,0.4-0.3,0.4-0.5c0-0.3-0.1-0.5-0.3-0.5c-0.3-0.1-0.4-0.2-0.5-0.2l0,0c-1.7-0.7-1.7-0.7-1.8-0.7c-0.2,0-0.3,0.1-0.4,0.2
		c-0.2,0.3-0.3,1.1-0.2,1.7C59.6,503.2,59.6,503.3,59.7,503.4z"/>
	<path id="path357" fill="#FFFFFF" d="M63.4,503.4c-0.2-0.1-0.5-0.1-0.6,0.2c0,0-0.2,0.3-0.3,0.4l-0.1,0.1c-1.2,1.4-1.2,1.5-1.2,1.5
		c0,0.1-0.1,0.1,0,0.2c0,0.1,0.1,0.2,0.1,0.3c0.3,0.3,1.5,0.8,1.9,0.8c0.1,0,0.1,0,0.1,0c0.2-0.1,0.3-0.1,0.4-0.3
		c0.1-0.1,0.1-0.1,0.1-1.8V504C63.7,503.7,63.6,503.5,63.4,503.4z"/>
	<path id="path359" fill="#FFFFFF" d="M63.5,496.6c-0.1-0.2-0.2-0.3-0.4-0.3c-0.5-0.1-2.2,0.4-2.5,0.7c-0.1,0.1-0.2,0.3-0.1,0.5
		c0.1,0.1,1.9,3.1,2.2,3.5c0.2,0.3,0.4,0.5,0.6,0.5c0.1,0,0.1,0,0.2,0c0.3-0.1,0.4-0.3,0.4-0.8C63.7,499.8,63.5,496.7,63.5,496.6
		L63.5,496.6z"/>
	<path id="path361" fill="#FFFFFF" d="M64.7,502.2l-0.2,0.2l0.4-0.2c0.1-0.1,0.3-0.1,0.5-0.1c1.8-0.4,1.8-0.4,1.9-0.5
		c0.1-0.1,0.2-0.2,0.2-0.4l0,0l0,0c-0.1-0.5-0.8-1.6-1.2-1.8c-0.2-0.1-0.3-0.1-0.5,0c-0.1,0.1-0.1,0.1-1.1,1.4c0,0-0.4,0.5-0.4,0.6
		c-0.2,0.2-0.2,0.4,0,0.6C64.4,502.1,64.5,502.2,64.7,502.2z"/>
	<path id="path363" fill="#FFFFFF" d="M67.4,503.7c-0.1-0.1-0.1-0.1-1.7-0.6c-0.3-0.1-0.6-0.2-0.7-0.2c-0.2-0.1-0.4,0-0.6,0.2
		c-0.2,0.2-0.2,0.4-0.1,0.6l0.3,0.4c1,1.6,1,1.6,1.1,1.7c0.1,0.1,0.2,0.1,0.3,0.1c0.1,0,0.1,0,0.2-0.1c0.4-0.2,1.3-1.3,1.4-1.7
		C67.6,504,67.5,503.8,67.4,503.7z"/>
</g>
<g id="g365">
	<path id="path367" fill="#FFFFFF" d="M105.5,506.5c0.5-0.1,0.9-0.6,0.9-1.2c0.1-0.6-0.3-1.2-0.8-1.4c-0.8-0.3-1.1-0.4-1.2-0.5l0,0
		c-4.3-1.8-4.4-1.8-4.6-1.8c-0.4,0-0.8,0.2-1,0.6c-0.4,0.8-0.6,2.9-0.5,4.3c0.1,0.5,0.2,0.9,0.3,1.1c0.2,0.4,0.6,0.6,1,0.6h0.1
		c0.2,0,0.5-0.1,4.2-1.3C105.1,506.6,105.4,506.5,105.5,506.5z"/>
	<path id="path369" fill="#FFFFFF" d="M107.7,507.6c-0.6-0.2-1.2-0.1-1.6,0.4c0,0-0.6,0.6-0.8,0.9l-0.1,0.1c-3,3.6-3,3.6-3.1,3.8
		c-0.1,0.2-0.1,0.3-0.1,0.5c0,0.2,0.1,0.4,0.3,0.6c0.6,0.8,3.6,1.9,4.9,1.9c0.1,0,0.2,0,0.3,0c0.4-0.1,0.8-0.3,0.9-0.7
		c0.1-0.2,0.1-0.3,0.1-4.4c0,0,0-1.7,0-1.8C108.6,508.3,108.3,507.8,107.7,507.6z"/>
	<path id="path371" fill="#FFFFFF" d="M108,490.6L108,490.6c-0.1-0.4-0.4-0.7-0.9-0.9c-1.2-0.3-5.6,0.9-6.4,1.8
		c-0.3,0.3-0.4,0.8-0.3,1.1c0.1,0.3,4.9,7.7,5.4,8.6c0.5,0.8,1,1.2,1.5,1.2c0.1,0,0.3,0,0.4-0.1c0.7-0.2,1-0.9,0.9-2
		C108.6,498.7,108,491,108,490.6z"/>
	<path id="path373" fill="#FFFFFF" d="M111,504.6c0.6,0.1,1.9-0.3,1.9-0.3c4.5-1.1,4.6-1.1,4.8-1.2c0.3-0.2,0.5-0.6,0.5-1v-0.1l0,0
		c-0.1-1.1-2.1-4-3.1-4.5c-0.4-0.2-0.8-0.2-1.2,0.1c-0.2,0.2-0.3,0.2-2.7,3.5c0,0-1,1.4-1.1,1.5c-0.3,0.4-0.4,1,0,1.5
		C110.3,504.3,110.6,504.5,111,504.6z"/>
	<path id="path375" fill="#FFFFFF" d="M117.9,508.4c-0.2-0.2-0.2-0.2-4.2-1.5c-0.6-0.2-1.6-0.5-1.7-0.5c-0.5-0.2-1.1,0-1.5,0.4
		c-0.4,0.5-0.4,1.1-0.1,1.6l0.7,1.1c2.4,3.8,2.5,4,2.7,4.2c0.2,0.2,0.4,0.2,0.6,0.2c0.2,0,0.3-0.1,0.5-0.1c1-0.4,3.2-3.2,3.4-4.3
		C118.3,509.1,118.2,508.6,117.9,508.4z"/>
</g>
<g id="g377">
	<path id="path379" fill="#FFFFFF" d="M169.9,454.8c-3.1-1.8-6.7-2.8-10.6-2.8c-2.3,0-4.6,0.3-6.8,0.8c-0.5,0.1-1,0.5-1,1.2
		c0,0.6,0.5,1.1,1.1,1.1c0.2,0,0.6-0.1,0.9-0.2c1.8-0.4,3.8-0.6,5.8-0.6c3.5,0,6.8,0.9,9.5,2.4c0.3,0.2,0.5,0.3,0.8,0.3
		c0.6,0,1.1-0.5,1.1-1.1C170.7,455.3,170.4,455,169.9,454.8z"/>
	<path id="path381" fill="#FFFFFF" d="M172.1,449.4c-3.6-2.2-8.3-3.4-13-3.4c-3,0-5.1,0.4-7.2,1c-0.8,0.2-1.1,0.8-1.1,1.5
		c0,0.8,0.6,1.4,1.4,1.4c0.3,0,0.5-0.1,0.9-0.2c1.7-0.4,3.6-0.8,6-0.8c4.5,0,8.6,1.2,11.6,2.9c0.3,0.2,0.5,0.3,0.9,0.3
		c0.8,0,1.4-0.6,1.4-1.4C173,450.2,172.7,449.7,172.1,449.4z"/>
	<path id="path383" fill="#FFFFFF" d="M174.6,443.3c-4.1-2.4-9.8-3.5-15.1-3.5c-3.1,0-6.1,0.4-8.7,1.1c-0.6,0.2-1.3,0.8-1.3,1.7
		c0,1,0.8,1.7,1.7,1.7c0.3,0,0.6-0.1,0.9-0.2c2.3-0.6,4.8-0.9,7.3-0.9c5,0,10.1,1.1,13.4,3.1c0.3,0.2,0.6,0.3,0.9,0.3
		c0.9,0,1.7-0.7,1.7-1.7C175.5,444,175.1,443.6,174.6,443.3z"/>
</g>
<path id="path385" fill="#FFFFFF" d="M229.8,504c-0.4-1.2-1.7-1.8-2.9-1.5l-2.4,0.8l-1.7-4.9l2.4-0.8c1.2-0.4,1.8-1.7,1.5-2.9
	c-0.4-1.2-1.7-1.8-2.9-1.5l-2.4,0.8l-0.8-2.4c-0.4-1.2-1.7-1.8-2.9-1.5l0,0c-1.2,0.4-1.8,1.7-1.5,2.9l0.8,2.4l-5,1.7l-0.8-2.4
	c-0.4-1.2-1.7-1.8-2.9-1.5c-1.2,0.4-1.8,1.7-1.5,2.9l0.8,2.4l-2.4,0.8c-1.2,0.4-1.8,1.7-1.5,2.9l0,0c0.4,1.2,1.7,1.8,2.9,1.5
	l2.4-0.8l1.7,4.9l-2.3,0.8c-1.2,0.4-1.8,1.7-1.5,2.9c0.4,1.2,1.7,1.8,2.9,1.5l2.3-0.8l0.9,2.5c0.4,1.2,1.7,1.8,2.9,1.5
	c1.2-0.4,1.8-1.7,1.5-2.9l-0.9-2.5l5-1.7l0.9,2.5c0.4,1.2,1.7,1.8,2.9,1.5c1.2-0.4,1.8-1.7,1.5-2.9l-0.9-2.5l2.4-0.8
	C229.5,506.6,230.1,505.2,229.8,504z M214.9,506.6l-1.7-4.9l5-1.7l1.7,4.9L214.9,506.6z"/>
<path id="path387" fill="#FFFFFF" d="M274.6,496.5c0-2,0.8-3,1.9-3c1,0,1.7,0.9,1.7,2.8c0,1.1-0.3,2.3-0.5,3c0,0,1,1.8,3.9,1.2
	c0.6-1.4,0.9-3.1,0.9-4.6c0-4.1-2.1-6.5-5.9-6.5c-3.9,0-6.2,3-6.2,7c0,3.9,1.8,7.4,4.9,8.9c-1.3,2.5-2.9,4.8-4.6,6.5
	c-3.1-3.7-5.8-8.7-7-18.4h-4.5c2.1,16.1,8.3,21.3,10,22.3c0.9,0.5,1.7,0.5,2.6,0.1c1.4-0.8,5.4-4.8,7.6-9.5c0.9,0,2.1-0.1,3.2-0.4
	v-3.2c-0.7,0.2-1.4,0.2-1.9,0.2C277.2,503,274.6,500.6,274.6,496.5z"/>
<g id="g389">
	<path id="path391" fill="#FFFFFF" d="M321.9,496.7c-1,1.1-1.6,2.5-1.7,4c3.1,0,6.1,0,9.1,0c0-0.2,0-0.4,0-0.7
		c-0.1-1-0.3-1.9-0.8-2.8c-0.7-1.1-1.8-1.7-3.1-1.9c-1.9-0.3-3.7,0-5.5,0.6c-2.6,0.9-4.7,2.5-6.4,4.6c-0.3,0.4-0.5,0.8-0.9,1.2
		c0-0.2,0.1-0.4,0.1-0.5c0.4-2.5,1.2-4.7,2.9-6.7c1.9-2.3,4.3-3.6,7.2-4.1c2.8-0.4,5.5,0,8,1.5c2.3,1.4,3.9,3.3,4.8,5.7
		c0.5,1.4,0.8,2.9,0.8,4.4c0,1,0,1.9,0,2.9c0,0.1,0,0.2,0,0.3c-5.4,0-10.8,0-16.2,0c0,1.4,0.4,2.5,1.3,3.4c1,1.1,2.4,1.6,3.8,1.8
		c3.1,0.4,6-0.1,8.7-1.7c0.1-0.1,0.2-0.1,0.2-0.1c0,0,0,0,0.1,0c0,0.1,0,0.2,0,0.3c0,1.6,0,3.2,0,4.9c0,0.2-0.1,0.3-0.2,0.4
		c-1.9,1-3.9,1.5-6.1,1.7c-1.4,0.1-2.8,0.1-4.1-0.2c-4.1-0.8-7.3-3.8-8.1-8c-0.9-4.8,1.4-9.2,6-11.1
		C321.8,496.7,321.8,496.7,321.9,496.7z"/>
</g>
<g id="g393">
	<path id="path395" fill="#FFFFFF" d="M384.4,501.4l7.9-5.4c0-0.6-0.6-1.1-0.9-1.1h-9v5.2l1.8,1.1
		C384.3,501.4,384.4,501.4,384.4,501.4z"/>
	<path id="path397" fill="#FFFFFF" d="M384.6,503.4c0,0-0.3,0.2-0.5,0l-1.7-1.1l0,0v7.1h8.5c0.8,0,1.4-0.4,1.4-1.5v-9.7
		C392.3,498.3,384.3,503.6,384.6,503.4z"/>
	<path id="path399" fill="#FFFFFF" d="M373.4,505.7c0.5,0,1-0.3,1.4-0.8c0.3-0.5,0.5-1.2,0.5-2.1s-0.2-1.7-0.5-2.2
		c-0.3-0.5-0.8-0.8-1.3-0.8c-0.6,0-1,0.3-1.4,0.8s-0.5,1.2-0.5,2.1c0,0.9,0.2,1.6,0.5,2.1C372.4,505.4,372.9,505.7,373.4,505.7z"/>
	<path id="path401" fill="#FFFFFF" d="M365.5,512.9l15.6,3.3v-26.9l-15.6,3V512.9z M370.9,499.4c0.6-0.9,1.6-1.4,2.7-1.4
		c1,0,1.9,0.4,2.5,1.2c0.6,0.9,1,1.9,1,3.4s-0.3,2.6-1,3.5c-0.6,0.9-1.5,1.3-2.6,1.3c-1,0-1.9-0.4-2.5-1.2c-0.6-0.9-1-1.9-1-3.3
		C369.9,501.4,370.2,500.3,370.9,499.4z"/>
</g>
<g id="g403">
	<path id="path405" fill="#FFFFFF" d="M493,497.5l-14.4-7.7c-0.8-0.4-1.6-0.4-2.3-0.2l12.3,12.3L493,497.5z"/>
	<path id="path407" fill="#FFFFFF" d="M498.4,500.4l-4.2-2.2l-4.7,4.7l4.7,4.7l4.2-2.2C500.4,504.2,500.4,501.4,498.4,500.4z"/>
	<path id="path409" fill="#FFFFFF" d="M475.2,490.4c-0.4,0.5-0.7,1.1-0.7,1.9v21.2c0,0.8,0.3,1.4,0.7,1.9l12.5-12.5L475.2,490.4z"/>
	<path id="path411" fill="#FFFFFF" d="M476.4,516.1c0.7,0.3,1.5,0.2,2.3-0.2l14.4-7.7l-4.4-4.4L476.4,516.1z"/>
</g>
<path id="path413" fill="#FFFFFF" d="M550.2,501.3c-0.1-3.8-3.2-6.9-7-6.9c-2.7,0-5,1.5-6.2,3.7c-0.5-0.3-1.2-0.5-1.8-0.5
	c-1.9,0-3.6,1.5-3.7,3.4c-1.9,0.8-3.3,2.7-3.3,4.9c0,2.9,2.4,5.3,5.3,5.3h15.9c2.8,0,5-2.2,5-5C554.3,503.7,552.5,501.7,550.2,501.3
	z"/>
<g id="g415">
	<path id="path417" fill="#FFFFFF" d="M168,510.3l8.1,4.1h0.1c0,0,0,0,0-0.1v-17.2L168,510.3z"/>
	<polygon id="polygon419" fill="#FFFFFF" points="167.5,491.3 161.8,500.6 167.3,509.5 175.9,495.5 	"/>
	<polygon id="polygon421" fill="#FFFFFF" points="158.4,505.5 165.9,509.2 158.4,497.1 	"/>
	<path id="path423" fill="#FFFFFF" d="M149,509.9c0,0.1,0.1,0.3,0.2,0.4l8.1,4.1h0.1c0,0,0,0,0-0.1v-18.7l-8.3-4.2V509.9z"/>
</g>
<path id="path425" fill="#FFFFFF" d="M499.9,229.9c-4.2,0-8.3,0-12.6,0c0,1.7,0,3.5,0,5.2c2.4,0,4.8,0,7.2,0
	c-0.3,1.7-1.2,3.2-2.7,4.1c-0.9,0.6-1.9,1-2.9,1.1c-1,0.2-2.1,0.2-3.2,0c-1.1-0.2-2.1-0.6-3-1.3c-1.4-1-2.5-2.4-3-4.1
	c-0.5-1.7-0.6-3.5,0-5.2c0.4-1.2,1.1-2.3,1.9-3.1c1.1-1.1,2.5-1.9,3.9-2.2c1.3-0.3,2.7-0.2,3.9,0.2c1.1,0.3,2.1,0.9,2.9,1.7
	c0.8-0.8,1.6-1.6,2.4-2.4c0.4-0.4,0.9-0.9,1.3-1.3c-1.2-1.1-2.7-2.1-4.3-2.7c-2.9-1-6.1-1.1-9-0.1c-3.2,1.1-6,3.5-7.5,6.6
	c-0.5,1.1-0.9,2.2-1.1,3.4c-0.6,2.9-0.2,6,1.1,8.6c0.9,1.7,2.1,3.2,3.6,4.4c1.4,1.1,3.1,1.9,4.8,2.4c2.2,0.6,4.6,0.6,6.8,0.1
	c2-0.5,3.9-1.4,5.5-2.8c1.6-1.5,2.8-3.4,3.4-5.5C500.2,234.6,500.3,232.2,499.9,229.9z"/>
<g id="g427">
	<path id="path429" fill="#FFFFFF" d="M536.5,393.2c0,1,0,1.9,0,2.9c1.6,0.1,3.2,0.1,4.9,0.1c-0.7,3.6-5.6,4.8-8.2,2.4
		c-2.7-2.1-2.5-6.6,0.2-8.5c1.9-1.6,4.7-1.2,6.7,0.2c0.8-0.7,1.5-1.5,2.2-2.2c-1.6-1.3-3.6-2.2-5.7-2.1c-4.4-0.2-8.4,3.7-8.5,8.1
		c-0.3,3.6,2.1,7.1,5.4,8.4c3.3,1.3,7.6,0.4,9.7-2.6c1.4-1.9,1.7-4.3,1.5-6.6C541.9,393.2,539.2,393.2,536.5,393.2z"/>
	<path id="path431" fill="#FFFFFF" d="M552.4,393.2c0-0.8,0-1.6,0-2.4c-0.8,0-1.6,0-2.4,0c0,0.8,0,1.6,0,2.4c-0.8,0-1.6,0-2.4,0
		c0,0.8,0,1.6,0,2.4c0.8,0,1.6,0,2.4,0c0,0.8,0,1.6,0,2.4c0.8,0,1.6,0,2.4,0c0-0.8,0-1.6,0-2.4c0.8,0,1.6,0,2.4,0c0-0.8,0-1.6,0-2.4
		C554.1,393.2,553.2,393.2,552.4,393.2z"/>
</g>
<g id="g433">
	<path id="path435" fill="#FFFFFF" d="M493.7,396.3c0-0.9,0.1-1.7,0-2.3c-0.1-0.6,0.1-2.3-2.9-2.4c0,0-2.8-0.3-3.1,1.8h1.4
		c0,0,0.1-1,1.6-0.9c1.4,0,1.6,0.7,1.6,1.5c0,0-1.2,0-1.6,0c-0.7,0-3.1,0.1-3.4,1.5c0.1-0.2,0.1-0.4,0.1-0.7
		c0.1-2.1-1.5-3.2-3.2-3.2c-1.7,0-2.4,1-2.4,1v-3.4h-1.4v5.4c-0.1-1-0.5-3-3.3-3c-3.4,0-3.5,2.6-3.5,3.3c0,0-0.2,3.1,3.4,3.1
		c3.1,0,3.2-1.9,3.2-1.9h-1.4c0,0-0.3,1.1-1.8,1c-1.9-0.1-2.1-1.9-2.1-1.9h5.4c0,0,0-0.1,0-0.1v1.4c0,0,0,0.8-0.1,1.4h1.3l0.1-0.8
		c0,0,0.6,1,2.4,1c1.6,0,2.8-0.8,3.2-2.4v0.1c-0.3,1.8,1.4,2.4,2.6,2.3c1.2,0,1.9-0.4,2.5-1.1l0.1,0.8h1.2
		C493.8,397.7,493.7,397.2,493.7,396.3z M475.1,394.2c0,0,0.1-1.7,2.1-1.7c1.9,0,1.9,1.7,1.9,1.7H475.1z M483.9,397
		c-2.1,0-2.1-2.3-2.1-2.3s-0.1-2.2,2.1-2.3c2.2-0.1,2.1,2.3,2.1,2.3S486,397,483.9,397z M490.2,397c0,0-1.4,0-1.5-1.1
		c-0.1-1.1,2.1-1.1,2.1-1.1h1.5C492.4,394.9,492.6,397.1,490.2,397z"/>
	<polygon id="polygon437" fill="#FFFFFF" points="499.2,391.8 496.9,396.4 494.5,391.8 493,391.8 496.1,397.7 494.9,400 496.4,400 
		500.6,391.8 	"/>
</g>
<path id="path439" fill="#FFFFFF" d="M216.8,353.2c-0.1,0-0.2,0-0.2,0l0,0c-0.1,0-0.1,0-0.1,0c-1.6,0-2.6-0.7-3.6-1.4
	c-0.7-0.5-1.4-0.9-2.1-1.1c-0.4-0.1-0.8-0.1-1.1-0.1c-0.6,0-1.1,0.1-1.5,0.2c-0.2,0.1-0.4,0.1-0.5,0.1c-0.2,0-0.3-0.1-0.4-0.3
	s-0.1-0.4-0.2-0.6c-0.1-0.5-0.2-0.8-0.4-0.9c-2.5-0.4-3.2-0.9-3.4-1.3c0-0.1-0.1-0.1-0.1-0.2c0-0.2,0.1-0.3,0.2-0.3
	c3.9-0.6,5.6-4.6,5.7-4.8l0,0c0.2-0.5,0.3-0.9,0.2-1.2c-0.3-0.6-1.1-0.9-1.7-1.1c-0.2-0.1-0.3-0.1-0.4-0.1c-1.1-0.4-1.2-0.9-1.2-1.1
	c0.1-0.4,0.6-0.7,1-0.7c0.1,0,0.2,0,0.3,0.1c0.5,0.2,1,0.4,1.4,0.4c0.5,0,0.8-0.2,0.8-0.3c0-0.3-0.1-0.5-0.1-0.8
	c-0.1-1.8-0.3-4.1,0.3-5.4c1.7-3.9,5.4-4.2,6.5-4.2c0.1,0,0.5,0,0.5,0h0.1c1.1,0,4.8,0.3,6.5,4.2c0.6,1.3,0.4,3.6,0.3,5.4v0.1
	c0,0.3-0.1,0.5-0.1,0.8c0.1,0.1,0.3,0.2,0.8,0.3l0,0c0.4,0,0.8-0.2,1.3-0.4c0.2-0.1,0.3-0.1,0.4-0.1c0.2,0,0.3,0.1,0.5,0.1l0,0
	c0.4,0.2,0.6,0.4,0.6,0.7s-0.2,0.6-1.2,1.1c-0.1,0.1-0.2,0.1-0.4,0.1c-0.6,0.2-1.5,0.4-1.7,1.1c-0.2,0.3-0.1,0.8,0.2,1.2l0,0
	c0.1,0.2,1.8,4.1,5.7,4.8c0.2,0,0.3,0.2,0.2,0.3c0,0.1,0,0.1-0.1,0.2c-0.2,0.4-0.9,0.9-3.4,1.3c-0.2,0.1-0.3,0.3-0.4,0.9
	c-0.1,0.2-0.1,0.4-0.2,0.6c-0.1,0.2-0.2,0.3-0.4,0.3h-0.1c-0.1,0-0.3,0-0.5-0.1c-0.4-0.1-0.9-0.2-1.5-0.2c-0.4,0-0.7,0.1-1.1,0.1
	c-0.8,0.1-1.4,0.6-2.1,1.1C219.4,352.5,218.4,353.2,216.8,353.2z"/>
<g id="g441">
	<path id="path443" fill="#FFFFFF" d="M172,331c-2.5-2.5-5.8-3.9-9.4-3.9c-7.4,0-13.3,6-13.3,13.3c0,2.3,0.6,4.7,1.8,6.7l-1.9,6.9
		l7.1-1.8c1.9,1.1,4.1,1.6,6.4,1.6l0,0l0,0c7.4,0,13.3-6,13.3-13.3C175.9,336.8,174.5,333.5,172,331z M162.5,351.5L162.5,351.5
		c-2,0-3.9-0.5-5.6-1.6l-0.4-0.2l-4.2,1.1l1.1-4.1l-0.3-0.4c-1.1-1.8-1.7-3.8-1.7-5.9c0-6.1,5-11.1,11.1-11.1c3,0,5.7,1.1,7.8,3.2
		c2.1,2.1,3.2,4.9,3.2,7.8C173.6,346.5,168.6,351.5,162.5,351.5z"/>
	<path id="path445" fill="#FFFFFF" d="M168.6,343.1c-0.3-0.2-1.9-1-2.3-1.1c-0.3-0.1-0.5-0.2-0.8,0.2c-0.2,0.3-0.9,1.1-1,1.3
		c-0.2,0.2-0.4,0.3-0.7,0.1c-0.3-0.2-1.4-0.5-2.7-1.7c-1-0.9-1.7-1.9-1.8-2.3c-0.2-0.3,0-0.5,0.2-0.7c0.2-0.2,0.3-0.4,0.5-0.6
		c0.2-0.2,0.2-0.3,0.3-0.5c0.1-0.2,0.1-0.4-0.1-0.6c-0.1-0.2-0.8-1.8-1-2.5c-0.3-0.6-0.5-0.5-0.8-0.6c-0.2,0-0.4,0-0.6,0
		s-0.6,0.1-0.9,0.4c-0.3,0.3-1.2,1.1-1.2,2.8s1.2,3.2,1.4,3.5s2.3,3.6,5.7,5c0.8,0.3,1.4,0.5,1.9,0.7c0.8,0.3,1.5,0.2,2.1,0.1
		c0.6-0.1,1.9-0.8,2.3-1.6c0.3-0.8,0.3-1.5,0.2-1.6C169.2,343.4,169,343.3,168.6,343.1z"/>
</g>
<g id="g447">
	<path id="path449" fill="#FFFFFF" d="M51.5,551.8c-0.1-0.1-0.3-0.1-0.4,0l-1.6,1.6c-0.1,0.1-0.1,0.1-0.1,0.2c0,0.1,0.1,0.2,0.1,0.2
		l4.8,4.8c0.1,0.1,0.1,0.1,0.2,0.1c0.1,0,0.2,0,0.2-0.1l9.6-9.6c0.1-0.1,0.1-0.3,0-0.4l-1.6-1.6c-0.1-0.1-0.1-0.1-0.2-0.1
		c-0.1,0-0.2,0.1-0.2,0.1l-7.8,7.8L51.5,551.8z"/>
	<path id="path451" fill="#FFFFFF" d="M67.8,555L67.8,555c-0.2-0.4-0.4-0.8-0.7-1l-4.1-2.9l-0.8,0.8l4.2,3l0.1,0.1
		c0.1,0.1,0.1,0.1,0.1,0.1c0,0,0,0,0.1,0.1c0.1,0.1,0,0.3-0.1,0.3l-24.3,14.8c0.3,0.1,0.5,0.2,0.8,0.2h22.9c1.1,0,2.1-0.9,2.1-2.1
		v-12.7C67.9,555.4,67.8,555.2,67.8,555z"/>
	<path id="path453" fill="#FFFFFF" d="M42.3,555c0.1-0.1,0.1-0.1,0.1-0.1l11.5-8.3c0.3-0.2,0.8-0.2,1.1,0l4.1,2.9l0.8-0.8l-4.2-3
		c-0.7-0.5-1.7-0.5-2.4,0L41.7,554c-0.3,0.3-0.6,0.6-0.7,1l0,0c-0.1,0.2-0.1,0.4-0.1,0.6v12.7c0,0.6,0.3,1.2,0.7,1.5l12.5-7.6
		L42.3,555z"/>
</g>
<g id="g455">
	<path id="path457" fill="#FFFFFF" d="M433,387.7c-3.8,0-6.9,3.1-6.9,6.9c0,3.8,3.1,6.9,6.9,6.9c3.8,0,6.9-3.1,6.9-6.9
		S436.8,387.7,433,387.7z M433,399c-2.4,0-4.4-2-4.4-4.4s2-4.4,4.4-4.4s4.4,2,4.4,4.4S435.4,399,433,399z"/>
	<circle id="circle459" fill="#FFFFFF" cx="440.2" cy="387.5" r="1.6"/>
	<path id="path461" fill="#FFFFFF" d="M444.2,383.5c-1.4-1.5-3.4-2.2-5.7-2.2h-11.1c-4.7,0-7.8,3.1-7.8,7.8v11.1
		c0,2.3,0.8,4.3,2.3,5.8c1.5,1.4,3.4,2.1,5.6,2.1h11c2.3,0,4.3-0.8,5.7-2.1c1.5-1.4,2.2-3.4,2.2-5.7v-11.1
		C446.4,386.9,445.6,384.9,444.2,383.5z M444,400.3c0,1.7-0.5,3-1.5,3.9c-1,0.9-2.3,1.4-3.9,1.4h-11c-1.6,0-3-0.5-3.9-1.4
		c-1-1-1.5-2.3-1.5-4v-11.1c0-1.6,0.5-3,1.5-3.9c0.9-0.9,2.3-1.4,3.9-1.4h11.1c1.6,0,3,0.5,3.9,1.5c0.9,1,1.5,2.3,1.5,3.9L444,400.3
		L444,400.3z"/>
</g>
<path id="path463" fill="#FFFFFF" d="M108.4,543.6c-5.8,0-10.5,4.7-10.5,10.5c0,7.8,8.4,16.3,10.5,16.3c2.1,0,10.5-8.5,10.5-16.3
	C118.8,548.3,114.2,543.6,108.4,543.6z M108.4,560.5c-3.5,0-6.4-2.9-6.4-6.4c0-1.4,0.4-2.7,1.2-3.7c0.1,1.4,1.2,2.4,2.5,2.4
	c1.4,0,2.5-1.1,2.5-2.5c0-1-0.6-1.9-1.5-2.3c0.5-0.1,1-0.2,1.5-0.2c3.5,0,6.4,2.9,6.4,6.4C114.7,557.7,111.9,560.5,108.4,560.5z"/>
<g id="g465">
	<path id="path467" fill="#FFFFFF" d="M157.8,549.6c0-0.9-0.5-2-2.8-2c-0.9,0-3.5,0-3.5,0l-1,4.6c0,0,1.9,0,3.7,0
		C156.9,552.2,157.8,550.8,157.8,549.6L157.8,549.6z"/>
	<path id="path469" fill="#FFFFFF" d="M167.2,549.6c0-0.9-0.5-2-2.8-2c-0.9,0-3.5,0-3.5,0l-1,4.6c0,0,1.9,0,3.7,0
		C166.4,552.2,167.2,550.8,167.2,549.6L167.2,549.6z"/>
	<path id="path471" fill="#FFFFFF" d="M156.5,556.5c0-0.9-0.5-2-2.8-2c-0.9,0-3.5,0-3.5,0l-1,4.6c0,0,1.9,0,3.7,0
		C155.7,559.1,156.5,557.8,156.5,556.5L156.5,556.5z"/>
	<path id="path473" fill="#FFFFFF" d="M166,556.5c0-0.9-0.5-2-2.8-2c-0.9,0-3.5,0-3.5,0l-1,4.6c0,0,1.9,0,3.7,0
		C165.2,559.1,166,557.8,166,556.5L166,556.5z"/>
	<path id="path475" fill="#FFFFFF" d="M175.9,553.7c0-0.9-0.5-2-2.8-2c-0.9,0-3.5,0-3.5,0l-1,4.6c0,0,1.9,0,3.7,0
		C175.1,556.3,175.9,555,175.9,553.7L175.9,553.7z"/>
	<path id="path477" fill="#FFFFFF" d="M174.5,561c0-0.9-0.5-2-2.8-2c-0.9,0-3.5,0-3.5,0l-1,4.6c0,0,1.9,0,3.7,0
		C173.7,563.6,174.5,562.2,174.5,561L174.5,561z"/>
	<path id="path479" fill="#FFFFFF" d="M164.6,563.8c0-0.9-0.5-2-2.8-2c-0.9,0-3.5,0-3.5,0l-1,4.6c0,0,1.9,0,3.7,0
		C163.8,566.4,164.6,565,164.6,563.8L164.6,563.8z"/>
</g>
<path id="path481" fill="#FFFFFF" d="M120.5,615.2c0.8-1.6,1.8-4.5,1-7.2c0-0.1,0-0.1-0.1-0.1c-0.1-0.1-0.1-0.2-0.1-0.2l0,0l0,0l0,0
	l0,0l0,0l0,0c0,0.1-0.2,0.7-0.5,1.7c0.2-1.5,0.1-2.9-0.4-4.3c-0.2-0.6-0.5-1.2-0.8-1.6c-0.4-0.6-0.8-1.1-1.1-1.3
	c0.1,0.1,0.1,0.1,0.1,0.1c-0.1-0.1-0.1-0.1-0.1-0.1l0,0l-0.1-0.1c0,0,0.1,0.2,0.1,0.4c-0.6-1.1-1.7-1.6-1.8-1.7l0,0
	c0,0,0.1,0.3,0.2,1c-1-0.8-2.3-1.5-3.8-1.9c2.5,1.6,3.4,3,3.9,4.2c-0.6-0.6-1.8-1.4-2.5-1.4c1.1,0.9,3,3.3,2.9,7
	c-0.5-1.3-1.2-1.8-1.2-1.8s0,0,0,0.1l0,0c0.2,1.5,0.2,2.5,0.2,3.2c0,0.2,0,0.3,0,0.5c-0.1,0.8-0.2,1.2-0.3,1.7
	c-0.2-0.6-0.3-0.9-0.3-0.9s0,0,0,0.1l0,0c0,0-0.1,1.2-0.8,2.8c-0.5,1-1,1.5-1.2,1.6c-0.1,0.1-0.2,0-0.3-0.1l0,0l0,0
	c0-0.2,0.1-0.3,0-0.4c0,0-0.2,0.1-0.4,0.3c-0.1,0.1-0.2,0.2-0.3,0.3l0.2-0.2c-0.1,0.1-0.2,0.2-0.3,0.3c-0.4,0.4-0.7,0.8-0.9,0.7
	c0.2-0.1,0.3-0.3,0.3-0.5c-0.2,0.1-0.5,0.4-1.4,0.5c-0.3,0.1-1.8,0.3-3.7-0.6c0.3-0.1,0.7-0.1,1,0.1c-0.3-0.3-1.1-0.3-1.7-0.4
	c-0.5-0.2-1.1-0.8-1.5-1.2c1.3,0.3,2.7,0.2,3.6-0.3c0.2-0.1,0.3-0.2,0.4-0.2c0.5-0.4,1.4-0.9,1.8-1c0.1,0,0.1,0,0.2,0
	c0.5,0.1,0.8-0.4,0.4-0.8c-0.4-0.4-1.3-1-2.5-0.7c-1,0.2-1.8,1-3.1,0.5c-0.1-0.1-0.2-0.1-0.3-0.1c-0.1-0.1,0.3,0.1,0.2,0
	c-0.3-0.1-0.7-0.3-0.9-0.4c0,0,0.2,0.1,0.2,0c-0.3-0.2-0.5-0.3-0.6-0.4l0,0c-0.7-0.6-0.5-1.2-0.5-1.6c0.1-0.3,0.3-0.5,0.4-0.5
	c0,0,0.1,0,0.1-0.1c0.2,0.1,0.3,0.1,0.3,0.1s-0.1-0.1-0.2-0.2c0,0,0,0,0.1,0c0.2,0.1,0.5,0.2,0.6,0.3c0.2,0.1,0.3,0.2,0.3,0.2
	s0.1-0.1,0-0.2c0-0.1-0.1-0.2-0.3-0.3l0,0c0.1,0.1,0.3,0.1,0.4,0.2c0.1-0.2,0.1-0.4,0.1-0.8c-0.1-0.3-0.1-0.3-0.1-0.4s0-0.1,0.1-0.1
	c0-0.1-0.1-0.1-0.1-0.2l0,0v0.1l0,0l0,0c0.4-0.5,2-1.2,2.3-1.6c0.1-0.1,0.1-0.1,0.1-0.1l0,0c0.2-0.2,0.3-0.3,0.4-0.5
	c0.1-0.2,0.2-0.8-0.1-0.9c-0.2-0.1-0.4-0.1-0.8-0.1c-0.3,0-0.8-0.1-1.3-0.1c-0.9,0-1.2-0.7-1.4-1c0,0,0,0,0,0.1l0,0
	c0.2-0.9,0.8-1.7,1.5-2.3c0.1-0.1-0.2,0-0.2,0c0.1-0.1,0.4-0.2,0.4-0.2c0.1-0.1-0.4-0.2-0.7-0.1c-0.3,0.1-0.4,0.1-0.6,0.2
	c0,0,0,0-0.1,0c0.1-0.1,0.3-0.2,0.3-0.2c-0.4,0.1-0.9,0.4-1.3,0.6c0-0.1,0-0.1,0-0.1c-0.2,0.1-0.6,0.4-0.8,0.7c0-0.1,0-0.1,0-0.2
	c-0.1,0.1-0.3,0.3-0.4,0.4l0,0c-0.4-0.1-0.9-0.2-1.2-0.2c-0.6-0.1-1.3,0.1-1.8,0.2c-0.3-0.2-0.7-0.6-1-1.1l0,0l0,0l0,0
	c0-0.1,0,0-0.1,0.1c-0.2-0.4-0.4-1-0.4-1.4l0,0l0,0l0,0l0,0c0,0-0.3,0.2-0.5,0.9c0,0.1-0.1,0.1-0.1,0.2c0-0.1,0-0.1,0-0.1l0,0l0,0
	c0,0,0,0,0,0.1c0-0.1,0-0.1,0-0.1c-0.1,0.1-0.2,0.2-0.2,0.4c0,0.1-0.1,0.2-0.1,0.2c0-0.1,0-0.1,0-0.1l0,0l0,0l0,0l0,0c0,0,0-0.1,0,0
	c-0.1,0.3-0.2,0.5-0.3,0.9c-0.1,0.4-0.2,0.8-0.2,1.4c-0.1,0.5,0,0.9,0,1l0,0l0,0c-0.3,0.4-0.5,0.8-0.6,1c-0.4,0.8-0.8,1.9-1.1,3.8
	c0,0,0,0,0-0.1v0.1l0,0l0,0c0,0,0-0.1,0.1-0.1v0.1c0,0,0.1-0.1,0.1-0.2c0-0.1,0-0.1,0-0.1c0.1-0.3,0.3-0.6,0.5-1.1
	c-0.3,1-0.5,2.5-0.4,4.8c0,0,0,0,0-0.1v0.1v-0.1l0,0v0.1c0-0.1,0-0.2,0.1-0.4c0-0.1,0-0.1,0-0.1c0.1-0.3,0.1-0.6,0.2-1
	c0.1,1.5,0.4,3.4,1.6,5.4c0.9,1.6,3.3,5.1,9.3,6.5h-0.1c0.1,0,0.1,0,0.1,0c-0.3-0.1-0.5-0.2-0.7-0.3h-0.1c-0.2-0.2-0.4-0.3-0.4-0.3
	s0.2,0.1,0.4,0.1l0,0c0.7,0.2,2.3,0.6,3.5,0.5c0,0,0,0-0.1,0l0,0h-0.1c-0.1-0.1-0.2-0.1-0.3-0.1l0,0c-0.2-0.1-0.3-0.2-0.3-0.2
	s0.1,0,0.2,0l0,0c0.8,0,4.8,0.1,6.9-1.7c0.5-0.4,0.9-0.9,1-1.3l0,0l0,0l0,0l0,0l0,0l0,0l0,0l0,0l0,0c0.3-0.1,0.5-0.3,0.8-0.4
	c0.6-0.4,1.3-0.9,1.8-1.6l0.1-0.1c0.1-0.1,0.1-0.1,0.1-0.1c0.3-0.3,0.4-0.6,0.6-0.9l0,0l0,0l0,0c0.3-0.5,0.5-1.1,0.5-1.8
	c0,0.2-0.1,0.3-0.1,0.4v-0.1C120.8,615.9,120.7,615.5,120.5,615.2z"/>
<path id="path483" fill="#FFFFFF" d="M444.8,562.5c-0.1-0.3-0.3-0.6-0.4-1c-0.2-0.5-0.4-0.9-0.6-1.4l0,0c-1.8-4-3.8-8-5.8-12
	L438,548c-0.2-0.4-0.4-0.8-0.6-1.2c-0.3-0.5-0.5-1-1-1.5c-0.9-1.1-2.1-1.6-3.4-1.6c-1.4,0-2.5,0.6-3.4,1.6c-0.4,0.5-0.7,1-1,1.5
	c-0.2,0.4-0.4,0.9-0.6,1.2l-0.1,0.2c-2.1,4-4.1,8-5.8,12v0.1c-0.2,0.4-0.4,0.9-0.6,1.4c-0.1,0.3-0.3,0.6-0.4,1
	c-0.3,1-0.4,1.9-0.3,2.9c0.3,2,1.6,3.7,3.5,4.4c0.7,0.3,1.4,0.4,2.2,0.4c0.2,0,0.5,0,0.7-0.1c0.9-0.1,1.8-0.4,2.7-0.9
	c1.1-0.6,2.1-1.5,3.3-2.8c1.2,1.3,2.2,2.2,3.3,2.8c0.9,0.5,1.8,0.8,2.7,0.9c0.2,0,0.5,0.1,0.7,0.1c0.8,0,1.5-0.1,2.2-0.4
	c1.8-0.8,3.1-2.4,3.5-4.4C445.3,564.4,445.1,563.4,444.8,562.5z M432.8,563.8c-1.4-1.8-2.4-3.5-2.7-4.9c-0.1-0.6-0.2-1.1-0.1-1.6
	c0.1-0.4,0.2-0.8,0.4-1.1c0.5-0.7,1.4-1.2,2.3-1.2c1,0,1.8,0.4,2.3,1.2c0.2,0.3,0.4,0.7,0.4,1.1c0.1,0.5,0.1,1-0.1,1.6
	C435.2,560.3,434.3,562,432.8,563.8z M443.4,565.1c-0.2,1.4-1.1,2.6-2.4,3.1c-0.6,0.3-1.4,0.3-2,0.3s-1.4-0.3-2-0.7
	c-1-0.5-1.9-1.4-3-2.6c1.7-2.2,2.8-4.1,3.2-5.8c0.2-0.8,0.2-1.6,0.1-2.3c-0.1-0.6-0.3-1.3-0.7-1.8c-0.8-1.2-2.2-1.9-3.7-1.9
	c-1.5,0-2.9,0.7-3.7,1.9c-0.4,0.5-0.6,1.1-0.7,1.8c-0.1,0.7-0.1,1.5,0.1,2.3c0.4,1.7,1.5,3.7,3.2,5.9c-1.1,1.2-2.1,2.1-3,2.6
	c-0.7,0.4-1.4,0.6-2,0.7c-0.7,0.1-1.4,0-2-0.3c-1.3-0.5-2.2-1.7-2.4-3.1c-0.1-0.6,0-1.4,0.2-2.1c0.1-0.3,0.2-0.5,0.3-0.9
	c0.2-0.4,0.4-0.9,0.6-1.4v-0.1c1.8-3.9,3.8-8,5.8-11.9l0.1-0.2c0.2-0.4,0.4-0.8,0.6-1.2c0.2-0.4,0.4-0.8,0.8-1.2
	c0.5-0.6,1.3-1,2.1-1s1.6,0.3,2.1,1c0.3,0.3,0.5,0.8,0.8,1.2c0.2,0.4,0.4,0.8,0.6,1.2l0.1,0.2c2,3.9,4,8,5.8,12l0,0
	c0.2,0.4,0.4,0.9,0.6,1.4c0.1,0.3,0.3,0.6,0.3,0.9C443.5,563.7,443.5,564.4,443.4,565.1z"/>
<path id="path2998" fill="#FFFFFF" d="M207.4,597.7l5.3,1.8v18.7l7.5-4.3l-3.7-1.7l-2.3-5.7l11.8,4.1v6l-13.3,7.6l-5.3-3V597.7z"/>
<g id="g486">
	<path id="path488" fill="#FFFFFF" d="M493.5,555c1.1,0.2,1.8,0.6,2.3,1.4c0.4,0.7,0.6,1.8,0.6,3.4c0,3.1-0.9,5.6-2.8,7.5
		c-1.8,1.9-4.2,2.9-7.1,2.9c-1.1,0-2.2-0.2-3.3-0.6c-1.1-0.4-2-1-2.8-1.7c-0.9-0.8-1.5-1.6-1.9-2.5c-0.4-0.9-0.6-1.8-0.6-2.8
		c0-1,0.2-1.8,0.6-2.4c0.4-0.6,1.1-1,2.1-1.2c-0.2-0.4-0.3-0.8-0.4-1.1c-0.1-0.3-0.1-0.5-0.1-0.6c0-0.5,0.3-1.1,0.9-1.7
		c0.6-0.6,1.1-0.9,1.6-0.9c0.2,0,0.4,0.1,0.7,0.1c0.2,0.1,0.5,0.2,0.8,0.4c-0.9-2.7-1.6-4.7-2.1-6.1c-0.4-1.5-0.6-2.4-0.6-3
		c0-0.8,0.2-1.4,0.6-1.8c0.4-0.4,0.9-0.6,1.6-0.6c1.1,0,2.6,2.5,4.3,7.7c0.3,0.9,0.5,1.6,0.7,2c0.1-0.4,0.3-0.9,0.5-1.6
		c1.7-5,3.2-7.6,4.5-7.6c0.6,0,1.1,0.2,1.5,0.6c0.4,0.4,0.5,1,0.5,1.7c0,0.5-0.2,1.5-0.6,2.9C494.9,550.8,494.3,552.6,493.5,555z
		 M480.4,562.4c0.2,0.2,0.4,0.5,0.7,0.9c0.8,1.1,1.6,1.7,2.2,1.7c0.2,0,0.4-0.1,0.6-0.2c0.2-0.2,0.3-0.3,0.3-0.4
		c0-0.2-0.1-0.5-0.4-0.9c-0.2-0.4-0.6-0.9-1-1.5c-0.5-0.6-0.9-1.1-1.2-1.4s-0.6-0.4-0.8-0.4c-0.4,0-0.8,0.2-1.2,0.7
		c-0.4,0.4-0.5,1-0.5,1.6c0,0.5,0.1,1,0.4,1.7c0.3,0.6,0.6,1.2,1.1,1.8c0.7,1,1.6,1.7,2.7,2.2c1.1,0.5,2.2,0.8,3.5,0.8
		c2.4,0,4.3-0.9,6-2.7c1.6-1.8,2.4-4,2.4-6.7c0-0.8-0.1-1.5-0.2-1.9c-0.1-0.5-0.3-0.8-0.6-1c-0.5-0.4-1.5-0.8-2.9-1.1
		c-1.5-0.3-2.9-0.5-4.5-0.5c-0.4,0-0.8,0.1-0.9,0.2c-0.2,0.2-0.3,0.4-0.3,0.8c0,0.8,0.5,1.4,1.4,1.8s2.4,0.5,4.5,0.5h0.8
		c0.2,0,0.3,0.1,0.4,0.2c0.1,0.1,0.2,0.3,0.2,0.6c-0.2,0.2-0.6,0.4-1.3,0.6c-0.6,0.3-1.1,0.5-1.5,0.8c-0.7,0.5-1.3,1.2-1.8,1.9
		c-0.4,0.8-0.6,1.4-0.6,2.1c0,0.4,0.1,0.9,0.3,1.5c0.2,0.5,0.3,0.9,0.3,1v0.1l-0.1,0.2c-0.5-0.1-1-0.3-1.2-0.9
		c-0.3-0.6-0.5-1.4-0.5-2.4v-0.2c-0.1,0.1-0.2,0.2-0.3,0.2c-0.1,0.1-0.2,0.1-0.3,0.1c-0.1,0-0.2,0-0.3-0.1c-0.1,0-0.2-0.1-0.3-0.1
		c0.1,0.1,0.1,0.3,0.1,0.4c0,0.1,0.1,0.2,0.1,0.3c0,0.4-0.2,0.8-0.5,1.1c-0.4,0.3-0.8,0.5-1.2,0.5c-0.8,0-1.6-0.4-2.3-1.1
		c-0.8-0.8-1.2-1.5-1.2-2.2c0-0.1,0-0.3,0.1-0.4C480.3,562.5,480.4,562.4,480.4,562.4z M485.9,562.8c0.2,0,0.4-0.1,0.5-0.3
		c0.2-0.2,0.3-0.4,0.3-0.6c0-0.2-0.2-0.8-0.5-1.6c-0.3-0.9-0.8-1.7-1.2-2.5c-0.4-0.6-0.7-1.1-1.1-1.4c-0.4-0.3-0.7-0.5-1-0.5
		c-0.3,0-0.5,0.2-0.9,0.5c-0.3,0.3-0.5,0.6-0.5,0.9s0.2,0.7,0.4,1.3c0.3,0.6,0.7,1.2,1.2,1.8c0.5,0.7,1,1.3,1.5,1.7
		C485.2,562.6,485.6,562.8,485.9,562.8z M487.7,554l-1.9-5.7c-0.5-1.5-0.9-2.4-1.2-2.8c-0.3-0.4-0.6-0.6-0.9-0.6
		c-0.3,0-0.5,0.1-0.6,0.3c-0.2,0.2-0.2,0.4-0.2,0.8c0,0.5,0.2,1.5,0.6,2.9c0.4,1.4,1.1,3.2,1.9,5.5c0.1-0.1,0.2-0.2,0.3-0.3
		c0.1-0.1,0.3-0.1,0.5-0.1c0.1,0,0.2,0,0.4,0C486.8,553.9,487.2,554,487.7,554z M489.7,559.6c-0.5,0-1-0.1-1.5-0.2
		c-0.5-0.1-0.9-0.2-1.4-0.4c0.2,0.4,0.4,0.8,0.5,1.2c0.2,0.4,0.3,0.8,0.4,1.1c0.3-0.4,0.6-0.7,0.9-1
		C489,560,489.4,559.8,489.7,559.6z M492.2,554.6c0.8-2.2,1.5-4.1,1.9-5.5c0.4-1.5,0.7-2.3,0.7-2.7c0-0.4-0.1-0.6-0.2-0.8
		c-0.2-0.2-0.4-0.3-0.6-0.3c-0.3,0-0.7,0.3-1,0.9c-0.4,0.5-0.8,1.5-1.2,2.7l-1.8,5.2L492.2,554.6z"/>
</g>
<g id="Facebook_Messenger_1_">
	<g id="g491">
		<path id="path493" fill="#FFFFFF" d="M270.8,543.6c-7.3,0-13.2,5.5-13.2,12.3c0,3.8,1.9,7.3,4.9,9.6v4.7l4.5-2.5
			c1.2,0.3,2.5,0.5,3.8,0.5c7.3,0,13.2-5.5,13.2-12.3S278.1,543.6,270.8,543.6z M272.1,560.1l-3.4-3.6l-6.5,3.6l7.2-7.7l3.5,3.6
			l6.5-3.6L272.1,560.1z"/>
	</g>
</g>
<g id="g495">
	<path id="path497" fill="#FFFFFF" d="M330,552.8c-2.5,0.1-4.6,0.9-6.4,2.6s-2.5,3.8-2.3,6.4c-1-0.1-1.8-0.3-2.8-0.3
		c-0.3,0-0.6,0-0.9,0.2c-0.9,0.5-1.7,1-2.7,1.6c0.2-0.8,0.3-1.5,0.5-2.2c0.2-0.5,0.1-0.8-0.4-1.1c-3-2.1-4.2-5.2-3.3-8.4
		c0.9-3,3-4.8,5.9-5.7c3.9-1.3,8.4,0,10.8,3.1C329.3,550,329.9,551.3,330,552.8z M318.6,551.8c0-0.6-0.5-1.1-1.1-1.1
		c-0.6,0-1.1,0.4-1.1,1.1c0,0.6,0.4,1.1,1.1,1.1C318.1,552.8,318.6,552.4,318.6,551.8z M324.6,550.6c-0.6,0-1.1,0.5-1.1,1.1
		s0.5,1.1,1.1,1.1c0.6,0,1.1-0.5,1.1-1.1C325.6,551.1,325.2,550.6,324.6,550.6z"/>
	<path id="path499" fill="#FFFFFF" d="M335.5,568.2c-0.8-0.3-1.5-0.9-2.3-1c-0.8-0.1-1.6,0.4-2.4,0.4c-2.4,0.3-4.6-0.4-6.4-2.1
		c-3.4-3.1-2.9-8,1-10.6c3.5-2.3,8.7-1.5,11.1,1.7c2.2,2.8,1.9,6.5-0.7,8.8c-0.8,0.7-1,1.2-0.5,2.1
		C335.5,567.8,335.5,568,335.5,568.2z M326.6,559.6c0.5,0,0.9-0.4,0.9-0.9c0-0.5-0.4-1-0.9-1s-1,0.4-0.9,1
		C325.7,559.2,326.1,559.6,326.6,559.6z M332.3,557.7c-0.5,0-0.9,0.4-0.9,0.9c0,0.5,0.4,1,0.9,1c0.5,0,0.9-0.4,0.9-0.9
		C333.3,558.1,332.9,557.8,332.3,557.7z"/>
</g>
<g id="g501" transform="translate(0.000000,950.000000) scale(0.100000,-0.100000)">
	<path id="path503" fill="#FFFFFF" d="M2073.9,4064.8c-5.2-0.6-11-2.4-16.1-5.1c-12-6.3-20.9-18.7-23.3-32.2
		c-0.5-2.9-0.5-6.8-0.5-96.5v-93.5l0.6-2.9c4.1-18.6,17.3-31.7,35.8-35.8l2.9-0.6h94h94l2.9,0.6c18.6,4.1,31.7,17.3,35.8,35.8
		l0.6,2.9v93.5c0,89.8-0.1,93.6-0.5,96.5c-0.7,4.2-2.2,8.4-4.3,12.7c-6.8,13.6-20.3,23-35.6,24.7
		C2256.7,4065.3,2077.3,4065.3,2073.9,4064.8z M2176,4017.3c9.8-1.2,17.7-3.6,26.5-7.8c8.5-4.2,14.1-8.2,21.3-15.4
		c6.8-6.8,10.5-12,14.6-20c5.6-11.2,8.8-24.5,9.3-39.2c0.2-5,0.1-6.1-1.1-7.5c-2.2-2.8-6.9-2.3-8.5,0.8c-0.5,1-0.6,1.9-0.8,5.9
		c-0.3,6.1-0.7,10.1-1.6,14.8c-3.4,18.6-12.3,33.4-26.5,44.1c-11.8,8.9-24.1,13.3-40.1,14.2c-5.4,0.3-6.4,0.5-7.6,1.5
		c-2.3,1.8-2.4,6-0.2,8c1.4,1.2,2.3,1.4,6.9,1.2C2170.4,4017.9,2174,4017.6,2176,4017.3z M2110.7,4014.2c1-0.3,2.5-1.1,3.4-1.7
		c5.4-3.6,20.6-22.9,25.5-32.6c2.8-5.5,3.8-9.6,2.9-12.6c-0.9-3.2-2.4-5-9.2-10.4c-2.7-2.2-5.2-4.4-5.7-5c-1-1.5-1.8-4.4-1.8-6.4
		c0.1-4.8,3.1-13.4,7.2-20.1c3.1-5.2,8.8-11.8,14.3-16.9c6.5-6,12.3-10.1,18.8-13.3c8.4-4.2,13.5-5.2,17.2-3.5
		c0.9,0.4,1.9,1,2.3,1.2c0.3,0.3,2.5,2.9,4.9,5.9c4.7,5.8,5.7,6.8,8.9,7.8c4,1.4,8.1,1,12.3-1.1c3.1-1.6,10-5.9,14.4-9
		c5.8-4.1,18.3-14.2,20-16.3c3-3.7,3.5-8.3,1.5-13.5c-2.1-5.5-10.3-15.7-16.1-20.1c-5.2-3.9-8.9-5.5-13.7-5.7
		c-4-0.2-5.7,0.2-10.8,2.3c-40.1,16.6-72.1,41.2-97.5,75.1c-13.3,17.7-23.4,36.1-30.3,55.1c-4,11.1-4.2,16-0.9,21.6
		c1.4,2.4,7.5,8.3,12,11.6c7.4,5.5,10.8,7.5,13.5,8.1C2105.4,4015.3,2108.6,4015,2110.7,4014.2z M2177.9,3996.7
		c17.3-2.5,30.7-10.6,39.5-23.7c4.9-7.4,8-16,9.1-25.3c0.4-3.4,0.4-9.6-0.1-10.6c-0.4-1-1.6-2.3-2.6-2.8c-1.1-0.6-3.5-0.5-4.8,0.2
		c-2.2,1.1-2.9,2.9-2.9,7.7c0,7.4-1.9,15.2-5.2,21.3c-3.8,6.9-9.3,12.6-16,16.6c-5.7,3.4-14.2,6-22,6.6c-2.8,0.2-4.3,0.8-5.4,2
		c-1.6,1.8-1.8,4.4-0.4,6.4C2168.8,3997.3,2171.1,3997.7,2177.9,3996.7z M2184,3975.1c5.6-1.2,10-3.4,13.6-6.8
		c4.8-4.5,7.4-9.9,8.5-17.7c0.8-5.1,0.4-7.1-1.4-8.8c-1.7-1.6-4.8-1.6-6.7-0.2c-1.4,1-1.8,2.1-2.1,5c-0.4,3.9-1.1,6.7-2.2,9.2
		c-2.5,5.4-6.9,8.2-14.4,9.1c-3.5,0.4-4.5,0.8-5.7,2.2c-2.1,2.5-1.3,6.5,1.6,8c1.1,0.5,1.6,0.6,3.9,0.4
		C2180.6,3975.6,2182.8,3975.3,2184,3975.1z"/>
</g>
<path id="path505" fill="#FFFFFF" d="M392.6,550L392.6,550L392.6,550v-0.6c0-1.2-1-2.2-2.2-2.2l0,0l0,0l0,0h-22.6l0,0l0,0
	c-1.2,0-2.2,1-2.2,2.2v15.1c0,1.2,1,2.2,2.2,2.2h0.8h20.9l0,0c2.3,0,3-0.6,3.1-2.2L392.6,550z M388.7,547.7l-9.7,7.1l-9.6-7.1H388.7
	z M369.1,553.3l9,6.2l0,0l-9,6.2V553.3z M369.4,566.2l9.2-6.4l0.2,0.1c0.1,0.1,0.2,0.1,0.3,0.1c0.1,0,0.5-0.2,0.5-0.2l9.2,6.4H369.4
	z M388.9,565.7l-9-6.2l5-3.5l3.9-2.7L388.9,565.7L388.9,565.7z"/>
<g id="g507">
	<path id="path509" fill="#FFFFFF" d="M162.5,597.6c-7.4,0-13.4,6-13.4,13.4c0,7.1,5.6,13,12.8,13.4c2.5,0.1,5-0.5,7.1-1.7
		c-4.1,1.2-8.4-0.3-11.2-3.8l0,0l0,0c-1.9-2.2-2.6-5.2-2.6-8.2c0.1-2.9,1-5.7,2.6-7.6c2.8-3.6,7.1-5,11.2-3.8
		C167.1,598.2,164.8,597.6,162.5,597.6"/>
	<path id="path511" fill="#FFFFFF" d="M171.5,601c-3.1-2.1-7.1-2.2-10.3-0.2c0,0,0,0-0.1,0c4.7-1.4,9.1,3.6,9.1,10.1
		c0,6.5-4.4,11.5-9.1,10.1c3.3,2.1,7.2,1.9,10.4-0.2l0,0c2.8-2.5,4.4-6.2,4.4-10S174.3,603.6,171.5,601z"/>
</g>
<g id="g513">
	<polygon id="polygon515" fill="#FFFFFF" points="55.9,611.8 61.3,604.1 53.7,609.5 	"/>
	<path id="path517" fill="#FFFFFF" d="M54.5,597.4c-7.4,0-13.5,6-13.5,13.5c0,7.4,6,13.5,13.5,13.5c7.4,0,13.5-6,13.5-13.5
		C68,603.4,61.9,597.4,54.5,597.4z M62.6,603.2l-6.5,9.3c-0.1,0.1-0.1,0.1-0.1,0.1l-9.1,6.5c-0.1,0.1-0.1,0.1-0.2,0.1
		s-0.2,0-0.2-0.1c-0.1-0.1-0.1-0.2-0.1-0.3l6.5-9.3c0.1-0.1,0.1-0.1,0.1-0.1l9.1-6.5c0.1-0.1,0.3-0.1,0.3,0.1
		C62.7,602.9,62.7,603.1,62.6,603.2z"/>
</g>
<path id="path519" fill="#FFFFFF" d="M541,543.5c-7.1,0-12.9,5.5-13.3,12.4h9.6v-2.3c0-0.2,0.2-0.4,0.4-0.4h6.4
	c0.2,0,0.4,0.2,0.4,0.4v6.4c0,0.2-0.2,0.4-0.4,0.4h-6.4c-0.2,0-0.4-0.2-0.4-0.4v-2.3h-9.6c0.4,7,6.2,12.5,13.3,12.5
	c7.4,0,13.4-6,13.4-13.4S548.3,543.5,541,543.5z"/>
<g id="g521">
	<g id="g523">
		<path id="path525" fill="#FFFFFF" d="M324.8,597.6c-7.4,0-13.4,6-13.4,13.4s6,13.4,13.4,13.4s13.4-6,13.4-13.4
			S332.2,597.6,324.8,597.6z M326.6,613.7L326.6,613.7h-3.8v4h-2.7v-13.4h6.5l0,0c2.6,0,4.7,2.1,4.7,4.7S329.2,613.7,326.6,613.7z"
			/>
	</g>
	<g id="g527">
		<path id="path529" fill="#FFFFFF" d="M326.6,606.9L326.6,606.9h-3.8v4h3.8l0,0c1.1,0,2-0.9,2-2S327.7,606.9,326.6,606.9z"/>
	</g>
</g>
<g id="g531">
	<path id="path533" fill="#FFFFFF" d="M284,611.1c0-1.7-1.4-3.1-3.1-3.1c-0.8,0-1.5,0.3-2.1,0.8c-2.1-1.3-4.8-2.1-7.7-2.2l1.8-6.3
		l4.5,0.8c0,0.1,0,0.1,0,0.1c0.1,1.1,1,1.9,2.1,1.8c1.1-0.1,1.9-1,1.8-2.1c-0.1-1.1-1-1.9-2.1-1.8c-0.7,0.1-1.3,0.4-1.6,1l0,0
		l-5.4-1l-2.2,7.4c-3,0.1-5.7,0.9-7.8,2.2c-0.5-0.5-1.2-0.8-2-0.8c-1.7,0-3.1,1.4-3.1,3.1c0,1,0.5,2,1.4,2.6
		c-0.1,0.3-0.1,0.6-0.1,0.9c0,4.4,5.4,8.1,12,8.1s12-3.6,12-8.1c0-0.3-0.1-0.6-0.1-0.9C283.4,613.1,284,612.1,284,611.1z
		 M264.9,613.2c0-1,0.9-1.9,1.9-1.9c1,0,1.9,0.9,1.9,1.9s-0.9,1.9-1.9,1.9C265.7,615,264.9,614.2,264.9,613.2z M275.1,618.3
		c-0.1,0.1-1.4,1.5-4.5,1.5c-3.1,0-4.3-1.4-4.4-1.5c-0.2-0.2-0.2-0.5,0.1-0.7c0.2-0.2,0.5-0.2,0.7,0.1c0.1,0.1,1.1,1.1,3.6,1.1
		c2.6,0,3.8-1.1,3.8-1.1c0.2-0.2,0.5-0.2,0.7,0C275.3,617.8,275.3,618.1,275.1,618.3z M274.7,615c-1,0-1.9-0.9-1.9-1.9
		c0-1,0.9-1.9,1.9-1.9s1.9,0.9,1.9,1.9C276.6,614.2,275.8,615,274.7,615z"/>
</g>
<g id="g535">
	<path id="path537" fill="#FFFFFF" d="M432.5,498.2h-2v4.1h1.8c2.3,0,3.1-0.2,3.1-2.2C435.4,498.5,434.9,498.2,432.5,498.2z"/>
	<path id="path539" fill="#FFFFFF" d="M441.1,489.3h-16.2c-3,0-5.4,2.4-5.4,5.4v16.2c0,3,2.4,5.4,5.4,5.4h16.2c3,0,5.4-2.4,5.4-5.4
		v-16.2C446.4,491.8,444.1,489.3,441.1,489.3z M433.2,504.7h-2.7v5.1h-2.9v-14h5.3c2.9,0,5.5,0.3,5.5,4.4
		C438.3,504.2,436,504.7,433.2,504.7z"/>
</g>
<g id="g541">
	<path id="path543" fill="#FFFFFF" d="M390.2,599.6c-1.4-1.5-3.4-2.2-5.7-2.2h-11.1c-2.3,0-4.3,0.8-5.7,2.2l0,0l0,0
		c-1.4,1.4-2.2,3.4-2.2,5.7v11.1c0,2.3,0.8,4.3,2.3,5.8c1.5,1.4,3.4,2.1,5.6,2.1h11c2.3,0,4.3-0.8,5.7-2.1c1.5-1.4,2.2-3.4,2.2-5.7
		v-11.1C392.4,603.1,391.7,601.1,390.2,599.6z M386.2,602.2c0.9,0,1.6,0.7,1.6,1.6c0,0.9-0.7,1.6-1.6,1.6c-0.9,0-1.6-0.7-1.6-1.6
		C384.6,602.9,385.3,602.2,386.2,602.2z M374.6,610.1c0-0.1,0-0.1,0-0.1c0.1-0.2,0.1-0.4,0.2-0.6c0.6-1.8,2.3-3,4.2-3s3.6,1.3,4.2,3
		c0.1,0.2,0.1,0.4,0.2,0.6c0,0.1,0,0.1,0,0.1c0.1,0.2,0.1,0.4,0.1,0.6c0,2.4-2,4.4-4.4,4.4s-4.4-2-4.4-4.4
		C374.5,610.6,374.6,610.4,374.6,610.1z M390,616.5c0,1.7-0.5,3-1.5,3.9c-1,0.9-2.3,1.4-3.9,1.4h-11c-1.6,0-3-0.5-3.9-1.4
		c-1-1-1.5-2.3-1.5-4v-7h4.2c-0.1,0.4-0.2,0.9-0.2,1.4c0,3.8,3.1,6.9,6.9,6.9c3.8,0,6.9-3.1,6.9-6.9c0-0.5-0.1-0.9-0.2-1.4h4.2
		L390,616.5L390,616.5z"/>
</g>
</svg>
