<?xml version="1.0" encoding="utf-8"?>
<!-- Generator: Adobe Illustrator 18.0.0, SVG Export Plug-In . SVG Version: 6.00 Build 0)  -->
<!DOCTYPE svg PUBLIC "-//W3C//DTD SVG 1.1//EN" "http://www.w3.org/Graphics/SVG/1.1/DTD/svg11.dtd">
<svg version="1.1" id="Ebene_1" xmlns="http://www.w3.org/2000/svg" xmlns:xlink="http://www.w3.org/1999/xlink" x="0px" y="0px"
	 viewBox="0 307.9 595.3 227" enable-background="new 0 307.9 595.3 227" xml:space="preserve">
<path fill="#FFFFFF" d="M488.8,315.9c-23.7,0-45.8,7.8-63.7,21c-18-13.2-40-21-63.7-21c-23.7,0-45.8,7.8-63.7,21
	c-18-13.2-39.7-21-63.7-21c-23.7,0-45.8,7.8-63.7,21c-17.6-13.2-39.7-21-63.7-21C47.8,315.9,0,363,0,420.9S47.8,526,106.4,526
	c23.7,0,45.8-7.8,63.7-21c18,13.2,40,21,63.7,21s45.8-7.8,63.7-21c17.6,13.2,39.7,21,63.7,21c23.7,0,45.8-7.8,63.7-21
	c17.6,13.2,39.7,21,63.7,21c58.6,0,106.4-47.1,106.4-105.1S547.5,315.9,488.8,315.9z M425.1,475.2c-12.9-14.6-20.7-33.6-20.7-54.2
	s7.8-39.7,20.7-54.2c12.9,14.6,20.7,33.6,20.7,54.2S438,460.6,425.1,475.2z M297.6,475.2c-12.9-14.6-20.7-33.6-20.7-54.2
	s7.8-39.7,20.7-54.2c12.9,14.6,20.7,33.6,20.7,54.2S310.5,460.6,297.6,475.2z M170.2,475.2c-12.9-14.6-20.7-33.6-20.7-54.2
	s7.8-39.7,20.7-54.2c12.9,14.6,20.7,33.6,20.7,54.2C191.2,441.6,183.1,460.6,170.2,475.2z M22,420.9c0-45.8,38-83.1,84.4-83.1
	c17.3,0,33.6,5.1,47.1,14.2c-16.3,18.3-26.1,42.4-26.1,68.8s9.8,50.5,26.1,68.8c-13.6,8.8-29.5,14.2-47.1,14.2
	C60,504,22,466.7,22,420.9z M186.8,489.8c16.3-18.3,26.1-42.4,26.1-68.8s-9.8-50.5-26.1-68.8c13.6-8.8,29.5-14.2,47.1-14.2
	s33.6,5.1,47.1,14.2c-16.3,18.3-26.4,42.4-26.4,68.8s9.8,50.5,26.4,68.8c-13.6,8.8-29.5,14.2-47.1,14.2
	C216.6,504,200.3,498.6,186.8,489.8z M314.3,489.8c16.3-18.3,26.4-42.4,26.4-68.8s-9.8-50.5-26.4-68.8c13.6-8.8,29.5-14.2,47.1-14.2
	c17.6,0,33.6,5.1,47.1,14.2c-16.3,18.3-26.4,42.4-26.4,68.8s9.8,50.5,26.4,68.8c-13.6,8.8-29.5,14.2-47.1,14.2
	C343.7,504,327.8,498.6,314.3,489.8z M488.8,504c-17.3,0-33.6-5.1-47.1-14.2c16.3-18.3,26.4-42.4,26.4-68.8s-9.8-50.5-26.4-68.8
	c13.6-8.8,29.5-14.2,47.1-14.2c46.4,0,84.4,37.3,84.4,83.1C573.2,466.7,535.3,504,488.8,504z"/>
</svg>
